<svg width="453" height="360" viewBox="0 0 453 360" fill="none" xmlns="http://www.w3.org/2000/svg">
<ellipse cx="209" cy="311" rx="209" ry="49" fill="#F8A441"/>
<path d="M43.6875 323.945V320.746C45.6562 322.188 47.8887 322.908 50.3848 322.908C52.2012 322.908 53.6426 322.469 54.709 321.59C55.7871 320.711 56.3262 319.527 56.3262 318.039C56.3262 314.805 54.1406 313.188 49.7695 313.188H47.1504V310.744H49.5586C51.4219 310.744 52.8633 310.34 53.8828 309.531C54.9141 308.723 55.4297 307.58 55.4297 306.104C55.4297 304.838 55.002 303.824 54.1465 303.062C53.3027 302.301 52.1367 301.92 50.6484 301.92C48.5391 301.92 46.4883 302.582 44.4961 303.906V300.918C46.3477 299.887 48.4805 299.371 50.8945 299.371C53.2852 299.371 55.166 299.939 56.5371 301.076C57.9082 302.213 58.5938 303.707 58.5938 305.559C58.5938 308.828 57 310.891 53.8125 311.746V311.816C55.5469 312.016 56.9238 312.666 57.9434 313.768C58.9629 314.869 59.4727 316.234 59.4727 317.863C59.4727 320.172 58.6523 322.012 57.0117 323.383C55.3711 324.742 53.127 325.422 50.2793 325.422C47.4316 325.422 45.2344 324.93 43.6875 323.945ZM77.2441 325H74.3613V322.188H74.291C73.0371 324.344 71.1914 325.422 68.7539 325.422C66.9609 325.422 65.5547 324.947 64.5352 323.998C63.5273 323.049 63.0234 321.789 63.0234 320.219C63.0234 316.855 65.0039 314.898 68.9648 314.348L74.3613 313.592C74.3613 310.533 73.125 309.004 70.6523 309.004C68.4844 309.004 66.5273 309.742 64.7812 311.219V308.266C66.5508 307.141 68.5898 306.578 70.8984 306.578C75.1289 306.578 77.2441 308.816 77.2441 313.293V325ZM74.3613 315.895L70.0195 316.492C68.6836 316.68 67.6758 317.014 66.9961 317.494C66.3164 317.963 65.9766 318.801 65.9766 320.008C65.9766 320.887 66.2871 321.607 66.9082 322.17C67.541 322.721 68.3789 322.996 69.4219 322.996C70.8516 322.996 72.0293 322.498 72.9551 321.502C73.8926 320.494 74.3613 319.223 74.3613 317.688V315.895ZM97.6172 325H94.7344V309.461H85.5586V325H82.6758V307H97.6172V325ZM118.535 325H115.934V310.639C115.676 311.143 115.283 311.852 114.756 312.766L106.441 325H103.453V307H106.09V321.186C106.23 320.846 106.535 320.266 107.004 319.445L115.547 307H118.535V325ZM136.641 324.174C135.258 325.006 133.617 325.422 131.719 325.422C129.152 325.422 127.078 324.59 125.496 322.926C123.926 321.25 123.141 319.082 123.141 316.422C123.141 313.457 123.99 311.078 125.689 309.285C127.389 307.48 129.656 306.578 132.492 306.578C134.074 306.578 135.469 306.871 136.676 307.457V310.41C135.34 309.473 133.91 309.004 132.387 309.004C130.547 309.004 129.035 309.666 127.852 310.99C126.68 312.303 126.094 314.031 126.094 316.176C126.094 318.285 126.645 319.949 127.746 321.168C128.859 322.387 130.348 322.996 132.211 322.996C133.781 322.996 135.258 322.475 136.641 321.432V324.174ZM153.885 325H151.002V322.188H150.932C149.678 324.344 147.832 325.422 145.395 325.422C143.602 325.422 142.195 324.947 141.176 323.998C140.168 323.049 139.664 321.789 139.664 320.219C139.664 316.855 141.645 314.898 145.605 314.348L151.002 313.592C151.002 310.533 149.766 309.004 147.293 309.004C145.125 309.004 143.168 309.742 141.422 311.219V308.266C143.191 307.141 145.23 306.578 147.539 306.578C151.77 306.578 153.885 308.816 153.885 313.293V325ZM151.002 315.895L146.66 316.492C145.324 316.68 144.316 317.014 143.637 317.494C142.957 317.963 142.617 318.801 142.617 320.008C142.617 320.887 142.928 321.607 143.549 322.17C144.182 322.721 145.02 322.996 146.062 322.996C147.492 322.996 148.67 322.498 149.596 321.502C150.533 320.494 151.002 319.223 151.002 317.688V315.895ZM170.619 309.461H165.223V325H162.34V309.461H156.926V307H170.619V309.461ZM174.082 325V307H176.965V313.908H181.816C183.656 313.908 185.115 314.389 186.193 315.35C187.283 316.311 187.828 317.652 187.828 319.375C187.828 321.109 187.283 322.48 186.193 323.488C185.104 324.496 183.727 325 182.062 325H174.082ZM176.965 316.387V322.539H181.289C183.68 322.539 184.875 321.484 184.875 319.375C184.875 317.383 183.668 316.387 181.254 316.387H176.965ZM204.492 324.174C203.109 325.006 201.469 325.422 199.57 325.422C197.004 325.422 194.93 324.59 193.348 322.926C191.777 321.25 190.992 319.082 190.992 316.422C190.992 313.457 191.842 311.078 193.541 309.285C195.24 307.48 197.508 306.578 200.344 306.578C201.926 306.578 203.32 306.871 204.527 307.457V310.41C203.191 309.473 201.762 309.004 200.238 309.004C198.398 309.004 196.887 309.666 195.703 310.99C194.531 312.303 193.945 314.031 193.945 316.176C193.945 318.285 194.496 319.949 195.598 321.168C196.711 322.387 198.199 322.996 200.062 322.996C201.633 322.996 203.109 322.475 204.492 321.432V324.174ZM221.156 325H218.273V317.547H215.865C214.705 317.547 213.65 318.484 212.701 320.359L210.363 325H207.023L210.047 319.445C210.75 318.156 211.6 317.307 212.596 316.896C211.189 316.709 210.117 316.193 209.379 315.35C208.641 314.506 208.271 313.451 208.271 312.186C208.271 310.592 208.846 309.332 209.994 308.406C211.154 307.469 212.777 307 214.863 307H221.156V325ZM218.273 315.139V309.461H214.863C212.438 309.461 211.225 310.381 211.225 312.221C211.225 314.166 212.402 315.139 214.758 315.139H218.273ZM251.777 325H248.895V316.826H239.719V325H236.836V307H239.719V314.383H248.895V307H251.777V325ZM270.498 325H267.615V322.188H267.545C266.291 324.344 264.445 325.422 262.008 325.422C260.215 325.422 258.809 324.947 257.789 323.998C256.781 323.049 256.277 321.789 256.277 320.219C256.277 316.855 258.258 314.898 262.219 314.348L267.615 313.592C267.615 310.533 266.379 309.004 263.906 309.004C261.738 309.004 259.781 309.742 258.035 311.219V308.266C259.805 307.141 261.844 306.578 264.152 306.578C268.383 306.578 270.498 308.816 270.498 313.293V325ZM267.615 315.895L263.273 316.492C261.938 316.68 260.93 317.014 260.25 317.494C259.57 317.963 259.23 318.801 259.23 320.008C259.23 320.887 259.541 321.607 260.162 322.17C260.795 322.721 261.633 322.996 262.676 322.996C264.105 322.996 265.283 322.498 266.209 321.502C267.146 320.494 267.615 319.223 267.615 317.688V315.895ZM300.75 325H297.867V309.461H288.691V325H285.809V307H300.75V325ZM309.539 322.398H309.469V333.279H306.586V307H309.469V310.164H309.539C310.957 307.773 313.031 306.578 315.762 306.578C318.082 306.578 319.893 307.387 321.193 309.004C322.494 310.609 323.145 312.766 323.145 315.473C323.145 318.484 322.412 320.898 320.947 322.715C319.482 324.52 317.479 325.422 314.936 325.422C312.604 325.422 310.805 324.414 309.539 322.398ZM309.469 315.139V317.652C309.469 319.141 309.949 320.406 310.91 321.449C311.883 322.48 313.113 322.996 314.602 322.996C316.348 322.996 317.713 322.328 318.697 320.992C319.693 319.656 320.191 317.799 320.191 315.42C320.191 313.416 319.729 311.846 318.803 310.709C317.877 309.572 316.623 309.004 315.041 309.004C313.365 309.004 312.018 309.59 310.998 310.762C309.979 311.922 309.469 313.381 309.469 315.139ZM342.832 325H340.23V310.639C339.973 311.143 339.58 311.852 339.053 312.766L330.738 325H327.75V307H330.387V321.186C330.527 320.846 330.832 320.266 331.301 319.445L339.844 307H342.832V325ZM363.135 316.721H350.426C350.473 318.725 351.012 320.271 352.043 321.361C353.074 322.451 354.492 322.996 356.297 322.996C358.324 322.996 360.188 322.328 361.887 320.992V323.699C360.305 324.848 358.213 325.422 355.611 325.422C353.068 325.422 351.07 324.607 349.617 322.979C348.164 321.338 347.438 319.035 347.438 316.07C347.438 313.27 348.229 310.99 349.811 309.232C351.404 307.463 353.379 306.578 355.734 306.578C358.09 306.578 359.912 307.34 361.201 308.863C362.49 310.387 363.135 312.502 363.135 315.209V316.721ZM360.182 314.277C360.17 312.613 359.766 311.318 358.969 310.393C358.184 309.467 357.088 309.004 355.682 309.004C354.322 309.004 353.168 309.49 352.219 310.463C351.27 311.436 350.684 312.707 350.461 314.277H360.182ZM358.705 303.59C358.236 303.59 357.832 303.426 357.492 303.098C357.152 302.77 356.982 302.354 356.982 301.85C356.982 301.357 357.146 300.947 357.475 300.619C357.803 300.291 358.201 300.127 358.67 300.127C359.162 300.127 359.578 300.297 359.918 300.637C360.258 300.965 360.428 301.369 360.428 301.85C360.428 302.33 360.264 302.74 359.936 303.08C359.607 303.42 359.197 303.59 358.705 303.59ZM351.955 303.59C351.463 303.59 351.041 303.42 350.689 303.08C350.35 302.729 350.18 302.318 350.18 301.85C350.18 301.357 350.344 300.947 350.672 300.619C351.012 300.291 351.422 300.127 351.902 300.127C352.383 300.127 352.799 300.297 353.15 300.637C353.502 300.965 353.678 301.369 353.678 301.85C353.678 302.33 353.508 302.74 353.168 303.08C352.828 303.42 352.424 303.59 351.955 303.59ZM386.953 325H384.105V310.164C383.848 310.914 383.449 312.016 382.91 313.469L378.41 325H375.826L371.186 313.469C370.939 312.848 370.541 311.746 369.99 310.164V325H367.512V307H371.186L375.932 318.742C376.271 319.598 376.705 320.781 377.232 322.293L378.516 318.812L383.121 307H386.953V325Z" fill="black"/>
<path d="M86.4375 69V24.1875H110.375V28.9375H91.6875V43.1875H100.188C104.646 43.1875 108.115 44.2708 110.594 46.4375C113.073 48.5833 114.312 51.6458 114.312 55.625C114.312 59.75 113.01 63.0104 110.406 65.4062C107.802 67.8021 104.25 69 99.75 69H86.4375ZM91.6875 47.9375V64.25H99.0625C102.167 64.25 104.562 63.5208 106.25 62.0625C107.938 60.6042 108.781 58.5625 108.781 55.9375C108.781 50.6042 105.542 47.9375 99.0625 47.9375H91.6875ZM148.094 54.2812H125.5C125.583 57.8438 126.542 60.5938 128.375 62.5312C130.208 64.4688 132.729 65.4375 135.938 65.4375C139.542 65.4375 142.854 64.25 145.875 61.875V66.6875C143.062 68.7292 139.344 69.75 134.719 69.75C130.198 69.75 126.646 68.3021 124.062 65.4062C121.479 62.4896 120.188 58.3958 120.188 53.125C120.188 48.1458 121.594 44.0938 124.406 40.9688C127.24 37.8229 130.75 36.25 134.938 36.25C139.125 36.25 142.365 37.6042 144.656 40.3125C146.948 43.0208 148.094 46.7812 148.094 51.5938V54.2812ZM142.844 49.9375C142.823 46.9792 142.104 44.6771 140.688 43.0312C139.292 41.3854 137.344 40.5625 134.844 40.5625C132.427 40.5625 130.375 41.4271 128.688 43.1562C127 44.8854 125.958 47.1458 125.562 49.9375H142.844ZM177.688 67.5312C175.229 69.0104 172.312 69.75 168.938 69.75C164.375 69.75 160.688 68.2708 157.875 65.3125C155.083 62.3333 153.688 58.4792 153.688 53.75C153.688 48.4792 155.198 44.25 158.219 41.0625C161.24 37.8542 165.271 36.25 170.312 36.25C173.125 36.25 175.604 36.7708 177.75 37.8125V43.0625C175.375 41.3958 172.833 40.5625 170.125 40.5625C166.854 40.5625 164.167 41.7396 162.062 44.0938C159.979 46.4271 158.938 49.5 158.938 53.3125C158.938 57.0625 159.917 60.0208 161.875 62.1875C163.854 64.3542 166.5 65.4375 169.812 65.4375C172.604 65.4375 175.229 64.5104 177.688 62.6562V67.5312ZM212 69H206.875V41.375H190.562V69H185.438V37H212V69ZM235.75 69.75C231.021 69.75 227.24 68.2604 224.406 65.2812C221.594 62.2812 220.188 58.3125 220.188 53.375C220.188 48 221.656 43.8021 224.594 40.7812C227.531 37.7604 231.5 36.25 236.5 36.25C241.271 36.25 244.99 37.7188 247.656 40.6562C250.344 43.5938 251.688 47.6667 251.688 52.875C251.688 57.9792 250.24 62.0729 247.344 65.1562C244.469 68.2188 240.604 69.75 235.75 69.75ZM236.125 40.5625C232.833 40.5625 230.229 41.6875 228.312 43.9375C226.396 46.1667 225.438 49.25 225.438 53.1875C225.438 56.9792 226.406 59.9688 228.344 62.1562C230.281 64.3438 232.875 65.4375 236.125 65.4375C239.438 65.4375 241.979 64.3646 243.75 62.2188C245.542 60.0729 246.438 57.0208 246.438 53.0625C246.438 49.0625 245.542 45.9792 243.75 43.8125C241.979 41.6458 239.438 40.5625 236.125 40.5625ZM286.438 69H279.25L265.125 53.625H265V69H259.875V37H265V51.6562H265.125L278.562 37H285.281L270.438 52.4375L286.438 69ZM305.062 69.75C300.333 69.75 296.552 68.2604 293.719 65.2812C290.906 62.2812 289.5 58.3125 289.5 53.375C289.5 48 290.969 43.8021 293.906 40.7812C296.844 37.7604 300.812 36.25 305.812 36.25C310.583 36.25 314.302 37.7188 316.969 40.6562C319.656 43.5938 321 47.6667 321 52.875C321 57.9792 319.552 62.0729 316.656 65.1562C313.781 68.2188 309.917 69.75 305.062 69.75ZM305.438 40.5625C302.146 40.5625 299.542 41.6875 297.625 43.9375C295.708 46.1667 294.75 49.25 294.75 53.1875C294.75 56.9792 295.719 59.9688 297.656 62.1562C299.594 64.3438 302.188 65.4375 305.438 65.4375C308.75 65.4375 311.292 64.3646 313.062 62.2188C314.854 60.0729 315.75 57.0208 315.75 53.0625C315.75 49.0625 314.854 45.9792 313.062 43.8125C311.292 41.6458 308.75 40.5625 305.438 40.5625ZM356 69H351.375V43.4688C350.917 44.3646 350.219 45.625 349.281 47.25L334.5 69H329.188V37H333.875V62.2188C334.125 61.6146 334.667 60.5833 335.5 59.125L350.688 37H356V69ZM386.469 41.375H376.875V69H371.75V41.375H362.125V37H386.469V41.375ZM43.9375 153.094V148.062C46.7292 149.625 49.9896 150.406 53.7188 150.406C59.3646 150.406 62.1875 148.615 62.1875 145.031C62.1875 141.49 59.0938 139.719 52.9062 139.719H49.75V135.375H52.75C58.1875 135.375 60.9062 133.688 60.9062 130.312C60.9062 128.875 60.2812 127.729 59.0312 126.875C57.7812 126.021 56.0729 125.594 53.9062 125.594C50.8021 125.594 47.6875 126.375 44.5625 127.938V123.156C48.1042 121.865 51.3542 121.219 54.3125 121.219C62.1042 121.219 66 124.083 66 129.812C66 131.667 65.4167 133.271 64.25 134.625C63.1042 135.958 61.4896 136.844 59.4062 137.281V137.438C61.7812 137.625 63.6875 138.427 65.125 139.844C66.5625 141.26 67.2812 143.052 67.2812 145.219C67.2812 148.135 66.1042 150.458 63.75 152.188C61.3958 153.917 58.1562 154.781 54.0312 154.781C49.6354 154.781 46.2708 154.219 43.9375 153.094ZM100.656 122L85.9375 159.125C83.3125 165.75 79.625 169.062 74.875 169.062C73.5417 169.062 72.4271 168.927 71.5312 168.656V164.062C72.6354 164.438 73.6458 164.625 74.5625 164.625C77.1458 164.625 79.0833 163.083 80.375 160L82.9375 153.938L70.4375 122H76.125L84.7812 146.625C84.8854 146.938 85.1042 147.75 85.4375 149.062H85.625C85.7292 148.562 85.9375 147.771 86.25 146.688L95.3438 122H100.656ZM130.938 106.25V111.062C130.083 111.688 128.708 112.156 126.812 112.469C122.125 113.177 118.844 113.865 116.969 114.531C115.115 115.177 113.583 116.573 112.375 118.719C111.188 120.865 110.427 124 110.094 128.125H110.219C112.719 124.5 116.281 122.688 120.906 122.688C125.135 122.688 128.542 124.135 131.125 127.031C133.708 129.927 135 133.75 135 138.5C135 143.396 133.646 147.333 130.938 150.312C128.25 153.271 124.625 154.75 120.062 154.75C115.146 154.75 111.354 153.01 108.688 149.531C106.042 146.031 104.719 141.042 104.719 134.562C104.719 129.521 105.198 125.25 106.156 121.75C107.115 118.229 108.438 115.583 110.125 113.812C111.833 112.042 113.719 110.823 115.781 110.156C117.865 109.49 121.427 108.708 126.469 107.812C128.469 107.354 129.958 106.833 130.938 106.25ZM110.031 133.188V137.625C110.052 139.292 110.302 140.927 110.781 142.531C111.26 144.135 111.948 145.552 112.844 146.781C113.74 148.01 114.792 148.927 116 149.531C117.229 150.135 118.625 150.438 120.188 150.438C123.042 150.438 125.344 149.375 127.094 147.25C128.865 145.104 129.75 142.365 129.75 139.031C129.75 135.365 128.844 132.458 127.031 130.312C125.24 128.146 122.812 127.062 119.75 127.062C115.458 127.062 112.219 129.104 110.031 133.188ZM169.812 154H164.688V139.469H148.375V154H143.25V122H148.375V135.125H164.688V122H169.812V154ZM203.094 154H197.969V149H197.844C195.615 152.833 192.333 154.75 188 154.75C184.812 154.75 182.312 153.906 180.5 152.219C178.708 150.531 177.812 148.292 177.812 145.5C177.812 139.521 181.333 136.042 188.375 135.062L197.969 133.719C197.969 128.281 195.771 125.562 191.375 125.562C187.521 125.562 184.042 126.875 180.938 129.5V124.25C184.083 122.25 187.708 121.25 191.812 121.25C199.333 121.25 203.094 125.229 203.094 133.188V154ZM197.969 137.812L190.25 138.875C187.875 139.208 186.083 139.802 184.875 140.656C183.667 141.49 183.062 142.979 183.062 145.125C183.062 146.688 183.615 147.969 184.719 148.969C185.844 149.948 187.333 150.438 189.188 150.438C191.729 150.438 193.823 149.552 195.469 147.781C197.135 145.99 197.969 143.729 197.969 141V137.812ZM234.625 154H229.5V140.75H225.219C223.156 140.75 221.281 142.417 219.594 145.75L215.438 154H209.5L214.875 144.125C216.125 141.833 217.635 140.323 219.406 139.594C216.906 139.26 215 138.344 213.688 136.844C212.375 135.344 211.719 133.469 211.719 131.219C211.719 128.385 212.74 126.146 214.781 124.5C216.844 122.833 219.729 122 223.438 122H234.625V154ZM229.5 136.469V126.375H223.438C219.125 126.375 216.969 128.01 216.969 131.281C216.969 134.74 219.062 136.469 223.25 136.469H229.5ZM287.25 106.25V111.062C286.396 111.688 285.021 112.156 283.125 112.469C278.438 113.177 275.156 113.865 273.281 114.531C271.427 115.177 269.896 116.573 268.688 118.719C267.5 120.865 266.74 124 266.406 128.125H266.531C269.031 124.5 272.594 122.688 277.219 122.688C281.448 122.688 284.854 124.135 287.438 127.031C290.021 129.927 291.312 133.75 291.312 138.5C291.312 143.396 289.958 147.333 287.25 150.312C284.562 153.271 280.938 154.75 276.375 154.75C271.458 154.75 267.667 153.01 265 149.531C262.354 146.031 261.031 141.042 261.031 134.562C261.031 129.521 261.51 125.25 262.469 121.75C263.427 118.229 264.75 115.583 266.438 113.812C268.146 112.042 270.031 110.823 272.094 110.156C274.177 109.49 277.74 108.708 282.781 107.812C284.781 107.354 286.271 106.833 287.25 106.25ZM266.344 133.188V137.625C266.365 139.292 266.615 140.927 267.094 142.531C267.573 144.135 268.26 145.552 269.156 146.781C270.052 148.01 271.104 148.927 272.312 149.531C273.542 150.135 274.938 150.438 276.5 150.438C279.354 150.438 281.656 149.375 283.406 147.25C285.177 145.104 286.062 142.365 286.062 139.031C286.062 135.365 285.156 132.458 283.344 130.312C281.552 128.146 279.125 127.062 276.062 127.062C271.771 127.062 268.531 129.104 266.344 133.188ZM312.938 154.75C308.208 154.75 304.427 153.26 301.594 150.281C298.781 147.281 297.375 143.312 297.375 138.375C297.375 133 298.844 128.802 301.781 125.781C304.719 122.76 308.688 121.25 313.688 121.25C318.458 121.25 322.177 122.719 324.844 125.656C327.531 128.594 328.875 132.667 328.875 137.875C328.875 142.979 327.427 147.073 324.531 150.156C321.656 153.219 317.792 154.75 312.938 154.75ZM313.312 125.562C310.021 125.562 307.417 126.688 305.5 128.938C303.583 131.167 302.625 134.25 302.625 138.188C302.625 141.979 303.594 144.969 305.531 147.156C307.469 149.344 310.062 150.438 313.312 150.438C316.625 150.438 319.167 149.365 320.938 147.219C322.729 145.073 323.625 142.021 323.625 138.062C323.625 134.062 322.729 130.979 320.938 128.812C319.167 126.646 316.625 125.562 313.312 125.562ZM360.406 154H355.312V126.344H347.875C347.021 136.698 345.552 143.969 343.469 148.156C341.406 152.344 338.625 154.438 335.125 154.438C334.062 154.438 333.146 154.292 332.375 154V149.594C333.104 149.969 333.896 150.156 334.75 150.156C339.333 150.156 342.281 140.771 343.594 122H360.406V154ZM370.812 154V122H375.938V134.281H384.562C387.833 134.281 390.427 135.135 392.344 136.844C394.281 138.552 395.25 140.938 395.25 144C395.25 147.083 394.281 149.521 392.344 151.312C390.406 153.104 387.958 154 385 154H370.812ZM375.938 138.688V149.625H383.625C387.875 149.625 390 147.75 390 144C390 140.458 387.854 138.688 383.562 138.688H375.938ZM408.344 141.562C408.156 141.021 407.99 140.323 407.844 139.469C407.698 138.594 407.625 137.729 407.625 136.875C407.625 135.542 407.885 134.344 408.406 133.281C408.948 132.198 409.615 131.188 410.406 130.25C411.198 129.312 412.062 128.417 413 127.562C413.938 126.688 414.802 125.812 415.594 124.938C416.385 124.042 417.042 123.115 417.562 122.156C418.104 121.177 418.375 120.104 418.375 118.938C418.375 117.938 418.177 117.052 417.781 116.281C417.406 115.51 416.885 114.865 416.219 114.344C415.552 113.823 414.781 113.438 413.906 113.188C413.031 112.917 412.104 112.781 411.125 112.781C407.604 112.781 404.552 114.167 401.969 116.938V111.438C405.156 109.438 408.458 108.438 411.875 108.438C413.458 108.438 414.948 108.646 416.344 109.062C417.74 109.479 418.958 110.104 420 110.938C421.062 111.75 421.896 112.771 422.5 114C423.104 115.229 423.406 116.656 423.406 118.281C423.406 119.823 423.135 121.198 422.594 122.406C422.052 123.615 421.365 124.729 420.531 125.75C419.719 126.75 418.833 127.688 417.875 128.562C416.917 129.438 416.021 130.312 415.188 131.188C414.375 132.042 413.698 132.938 413.156 133.875C412.615 134.812 412.344 135.844 412.344 136.969C412.344 137.927 412.458 138.802 412.688 139.594C412.917 140.365 413.146 141.021 413.375 141.562H408.344ZM411.156 154.562C410.24 154.562 409.427 154.229 408.719 153.562C408.031 152.896 407.688 152.083 407.688 151.125C407.688 150.146 408.031 149.333 408.719 148.688C409.406 148 410.219 147.656 411.156 147.656C412.094 147.656 412.906 148 413.594 148.688C414.281 149.333 414.625 150.146 414.625 151.125C414.625 152.083 414.281 152.896 413.594 153.562C412.885 154.229 412.073 154.562 411.156 154.562Z" fill="black"/>
</svg>
