<svg width="246" height="72" viewBox="0 0 246 72" fill="none" xmlns="http://www.w3.org/2000/svg">
<g clip-path="url(#clip0_1_6)">
<path d="M0 14.2042C0.617139 13.8894 1.26997 13.6337 1.94758 13.4412C2.55717 13.2719 3.19167 13.1842 3.83025 13.1812C4.62551 13.1812 5.16758 13.3863 5.45323 13.7938C5.73888 14.2013 5.90117 15.0278 5.90117 16.2705C5.90117 16.8196 5.81894 18.4505 5.65448 21.1632C5.49002 23.8759 5.4067 26.3083 5.40454 28.4603C5.40454 32.4562 6.04292 35.2835 7.31966 36.9424C8.59641 38.6012 10.7431 39.4296 13.7597 39.4277C17.274 39.4277 19.8188 38.3584 21.3942 36.2199C22.9696 34.0813 23.7583 30.6191 23.7605 25.8334C23.8054 23.3774 23.6132 20.9225 23.186 18.4958C22.8029 16.5961 22.2284 15.2263 21.4624 14.3863C22.0313 14.0309 22.6392 13.7278 23.2769 13.4817C23.7501 13.3005 24.2582 13.2023 24.7732 13.1927C25.9461 13.1927 26.7457 13.738 27.172 14.8284C27.5983 15.9189 27.8147 18.4149 27.8212 22.3163C27.8212 29.6568 26.6916 34.9001 24.4324 38.0463C22.1732 41.1925 18.4436 42.7675 13.2436 42.7714C8.95888 42.7714 5.87304 41.784 3.98605 39.8092C2.09906 37.8344 1.1534 34.5996 1.14907 30.1047C1.14907 29.1029 1.19019 27.6791 1.27242 25.8334C1.35465 23.9877 1.39577 22.6448 1.39577 21.8048C1.42431 20.2717 1.31577 18.739 1.07117 17.2213C0.904125 16.1698 0.542147 15.1502 0 14.2042H0Z" fill="#439283"/>
<path d="M40.3572 41.2336C39.7964 41.5142 39.2047 41.7428 38.5914 41.9156C38.0923 42.0557 37.5728 42.1297 37.0496 42.1353C36.329 42.1353 35.8323 41.9532 35.5629 41.5833C35.2935 41.2134 35.1572 40.5256 35.1572 39.5083C35.1572 38.2387 35.2394 35.8227 35.4039 32.2603C35.5683 28.698 35.6506 25.7608 35.6506 23.4488C35.6848 21.2763 35.5873 19.1038 35.3584 16.9407C35.1572 15.4726 34.8272 14.3465 34.3684 13.5623C34.9149 13.2766 35.4965 13.0477 36.1018 12.8803C36.6129 12.7394 37.1443 12.6654 37.6793 12.6606C38.4302 12.6606 38.9409 12.8273 39.2114 13.1606C39.4819 13.4939 39.6171 14.1759 39.6171 15.2067C39.6171 16.0621 39.5338 18.3076 39.3672 21.9432C39.2006 25.5787 39.1183 28.7808 39.1205 31.5494C39.0813 33.7179 39.1755 35.8867 39.4029 38.046C39.5089 39.1501 39.8319 40.229 40.3572 41.2336V41.2336Z" fill="#439283"/>
<path d="M48.1507 26.0558C47.8943 26.0558 47.5437 26.0558 47.0925 26.0847C46.6413 26.1136 46.3492 26.1165 46.2129 26.1165C45.7642 26.1499 45.3141 26.0697 44.9145 25.8853C44.7836 25.7912 44.6811 25.6695 44.6165 25.5312C44.5519 25.3929 44.5271 25.2424 44.5444 25.0934C44.5491 24.8863 44.583 24.6804 44.645 24.4808C44.7283 24.2092 44.8369 23.9443 44.9696 23.6889C45.0897 23.6889 45.2942 23.6889 45.5766 23.7091C45.859 23.7294 46.0863 23.7294 46.2518 23.7294C46.6435 23.7294 47.2667 23.7091 48.1215 23.6687C48.2054 23.6711 48.2894 23.6643 48.3714 23.6484C48.3714 23.5011 48.3714 23.2814 48.3909 22.9866C48.4104 22.6919 48.4136 22.478 48.4136 22.3451C48.4237 21.4222 48.3488 20.5001 48.1897 19.5881C48.0641 18.8649 47.8293 18.1601 47.4918 17.4928C48.0524 17.2439 48.6315 17.0295 49.2251 16.8513C49.6428 16.7197 50.0807 16.6456 50.5235 16.6316C50.7765 16.612 51.0311 16.6484 51.2644 16.7377C51.4978 16.827 51.7027 16.9662 51.8608 17.1432C52.14 17.4842 52.2796 18.0419 52.2796 18.8164C52.2796 19.1517 52.2114 20.2007 52.0751 21.9636C52.0296 22.6196 51.9939 23.1398 51.9647 23.5271C52.8346 23.4201 53.6202 23.3421 54.318 23.2872C55.0159 23.2323 55.6424 23.2063 56.1975 23.2063C56.5751 23.1767 56.9528 23.2623 57.2686 23.449C57.3854 23.5488 57.4753 23.6709 57.5316 23.806C57.5878 23.9411 57.6089 24.0859 57.5932 24.2293C57.5779 24.4886 57.5097 24.7432 57.392 24.9807C57.2336 25.337 57.0425 25.6811 56.8207 26.0095C56.4131 25.926 56.0001 25.8651 55.584 25.8275C55.149 25.7899 54.6102 25.7697 54.0064 25.7697C53.9026 25.7697 53.5877 25.7697 53.0619 25.7986L51.7083 25.8477C51.5741 27.9342 51.4767 29.6518 51.4161 31.0005C51.3577 32.353 51.3253 33.4541 51.3253 34.3095C51.3253 36.1668 51.5092 37.4672 51.8771 38.2109C52.0153 38.5475 52.2698 38.8365 52.6039 39.0364C52.9381 39.2363 53.3347 39.3368 53.737 39.3236C53.9939 39.3209 54.2484 39.2798 54.4901 39.2022C54.7777 39.1123 55.0481 38.9836 55.2918 38.8207C55.4079 39.0483 55.5056 39.283 55.584 39.523C55.6395 39.7 55.6701 39.8825 55.6749 40.0663C55.6789 40.3804 55.5982 40.6909 55.4395 40.9715C55.2808 41.2521 55.0487 41.4947 54.7627 41.6789C54.0738 42.1229 53.2363 42.346 52.3867 42.3118C50.7637 42.3118 49.5584 41.8301 48.7707 40.8668C47.983 39.9035 47.5891 38.4363 47.5891 36.4654C47.5891 35.9028 47.6638 34.4154 47.8131 32.0033C47.9624 29.5912 48.075 27.6086 48.1507 26.0558Z" fill="#439283"/>
<path d="M65.718 26.3564C66.6124 25.1752 67.6974 24.1177 68.938 23.218C69.789 22.5871 70.8503 22.2244 71.9568 22.1862C72.7496 22.1705 73.5194 22.4248 74.1088 22.8972C74.3921 23.1139 74.6186 23.3833 74.7722 23.6864C74.9259 23.9895 75.003 24.3189 74.9982 24.6514C74.9889 25.1315 74.812 25.5971 74.4919 25.9836C74.0709 26.4892 73.556 26.9271 72.9695 27.2783C72.7973 26.7856 72.4919 26.3381 72.0801 25.975C71.7315 25.6956 71.2766 25.5447 70.8077 25.553C70.0719 25.553 69.2983 25.8777 68.4868 26.5269C67.5318 27.3424 66.7267 28.2864 66.101 29.3244C66.0275 29.9255 65.9669 30.5363 65.9193 31.1567C65.8716 31.777 65.85 32.382 65.8543 32.9715C65.8266 34.6488 65.9482 36.3254 66.2179 37.9856C66.397 39.1314 66.7886 40.2428 67.3767 41.2744C66.8141 41.5412 66.2225 41.7561 65.6109 41.916C65.0582 42.0595 64.4857 42.1334 63.91 42.1356C63.1732 42.1356 62.6668 41.9738 62.3909 41.6443C62.115 41.3148 61.9721 40.6588 61.9721 39.6705C61.9721 39.3102 62.0511 37.923 62.2091 35.5089C62.3671 33.0949 62.4461 30.8522 62.4461 28.7811C62.4706 27.4747 62.3958 26.1684 62.2221 24.871C62.0954 24.0437 61.8454 23.2351 61.4788 22.4666C61.7679 22.3738 62.0655 22.3032 62.3682 22.2556C62.6693 22.2087 62.9745 22.1855 63.2803 22.1862C64.1459 22.1862 64.7951 22.3693 65.2279 22.7353C65.6498 23.1052 65.8608 23.6688 65.8608 24.4317C65.8608 24.6051 65.8608 24.8421 65.8251 25.1427C65.7894 25.4432 65.7634 25.8478 65.718 26.3564Z" fill="#439283"/>
<path d="M96.3014 41.072C95.7966 41.3695 95.262 41.6249 94.7044 41.8349C94.3058 41.992 93.8773 42.0802 93.4417 42.095C93.1759 42.1163 92.9082 42.079 92.6625 41.9862C92.4168 41.8935 92.2005 41.7482 92.0329 41.5633C91.7408 41.2107 91.572 40.6394 91.5266 39.8495C90.5283 40.6331 89.4007 41.2755 88.1832 41.754C87.1201 42.1625 85.975 42.3749 84.8171 42.3782C82.5644 42.3782 80.7478 41.8166 79.3671 40.6934C77.9865 39.5701 77.2951 38.0924 77.293 36.2602C77.2681 35.2846 77.5154 34.3188 78.0128 33.4493C78.5101 32.5798 79.2421 31.8337 80.1429 31.2779C82.0429 30.0294 84.5986 29.4042 87.8099 29.4023C88.3358 29.4023 88.8973 29.4197 89.4881 29.4543C90.0789 29.489 90.7183 29.5382 91.3935 29.6046C91.4234 29.4819 91.4419 29.3572 91.4487 29.2318C91.4487 29.1075 91.4487 28.9428 91.4487 28.781C91.4487 27.3899 91.0094 26.3303 90.1308 25.602C89.2522 24.8738 87.9895 24.5096 86.3427 24.5096C85.1662 24.4713 83.996 24.6812 82.928 25.1223C82.0111 25.5511 81.256 26.2104 80.7564 27.0181C80.2825 26.9328 79.8516 26.7151 79.5262 26.3968C79.2328 26.0699 79.0839 25.6587 79.1075 25.2408C79.1075 24.2678 79.8021 23.4625 81.1914 22.8248C82.5807 22.1871 84.3941 21.8692 86.6316 21.8711C89.3777 21.8711 91.4335 22.4635 92.799 23.6484C94.1645 24.8333 94.8515 26.601 94.8602 28.9515C94.8602 29.3908 94.8375 30.1614 94.792 31.2635C94.7466 32.3655 94.7249 33.2469 94.7271 33.9078C94.6983 35.4014 94.8254 36.8942 95.1069 38.367C95.2809 39.3349 95.6884 40.2577 96.3014 41.072V41.072ZM91.348 32.1507C90.6566 32.0582 90.0496 31.9859 89.4881 31.9397C88.9265 31.8935 88.4721 31.8703 88.0826 31.8703C85.7563 31.8703 83.9992 32.2142 82.8111 32.9021C81.6231 33.5899 81.0302 34.6158 81.0323 35.9799C81.0053 36.4665 81.1028 36.9522 81.3177 37.4003C81.5325 37.8484 81.8589 38.2471 82.2723 38.5664C83.0968 39.1964 84.2372 39.5104 85.6935 39.5085C86.7498 39.5164 87.7964 39.3295 88.7675 38.9594C89.7575 38.5679 90.6501 38.005 91.3935 37.3035C91.361 36.6359 91.3448 36.0897 91.3351 35.6706C91.3253 35.2516 91.3351 34.8441 91.3351 34.4569C91.3351 34.217 91.3351 33.8384 91.3578 33.324C91.3805 32.8096 91.361 32.4194 91.348 32.1507Z" fill="#439283"/>
<path d="M152.652 13.2936C154.707 13.2666 156.763 13.2194 158.819 13.152L161.984 13.0537C167.855 13.0537 172.528 14.2964 176.003 16.7818C179.478 19.2671 181.216 22.5829 181.216 26.729C181.228 28.8997 180.702 31.0461 179.674 33.0146C178.632 35.0031 177.114 36.7647 175.227 38.1761C173.389 39.5648 171.256 40.6113 168.956 41.2539C166.357 41.9709 163.647 42.3201 160.926 42.2885C157.907 42.2885 155.921 42.0746 154.969 41.6469C154.017 41.2192 153.54 40.3965 153.538 39.1789C153.538 39.0864 153.609 37.5027 153.752 34.4278C153.895 31.3529 153.966 28.3184 153.966 25.3245C153.966 22.0761 153.858 19.506 153.642 17.6141C153.425 15.7221 153.095 14.2819 152.652 13.2936ZM158.28 16.5419C158.176 19.376 158.102 21.9191 158.056 24.1714C158.011 26.4236 157.988 28.3849 157.988 30.0553C157.988 31.5273 158.007 32.9616 158.046 34.3585C158.085 35.7553 158.148 37.1155 158.235 38.4391C158.935 38.598 159.647 38.7177 160.364 38.7974C161.078 38.8783 161.797 38.9189 162.516 38.9188C166.703 38.9188 170.085 37.8765 172.66 35.7919C175.235 33.7073 176.522 30.9734 176.522 27.5902C176.522 24.2359 175.247 21.5088 172.695 19.4087C170.144 17.3087 166.826 16.2625 162.74 16.2702C161.916 16.2702 161.133 16.2934 160.4 16.3396C159.666 16.3858 158.959 16.4725 158.28 16.5506V16.5419Z" fill="#439283"/>
<path d="M201.838 37.9047C202.131 38.2125 202.376 38.5536 202.568 38.9191C202.719 39.204 202.8 39.5144 202.805 39.8294C202.805 40.5519 202.201 41.1434 200.994 41.6039C199.783 42.0663 198.206 42.2974 196.251 42.2974C192.664 42.2974 189.85 41.4247 187.812 39.6792C185.773 37.9336 184.756 35.5253 184.761 32.4543C184.761 29.3524 185.785 26.816 187.835 24.845C189.884 22.8741 192.516 21.8867 195.732 21.8828C198.208 21.8828 200.242 22.5119 201.835 23.77C202.607 24.3649 203.222 25.1051 203.635 25.9372C204.047 26.7693 204.247 27.6725 204.22 28.5817C204.22 30.123 203.56 31.2193 202.24 31.8705C200.92 32.5217 198.675 32.8492 195.505 32.8531C194.321 32.8531 193.14 32.8165 191.96 32.7433C190.779 32.6681 189.613 32.5583 188.458 32.4109V32.6999C188.458 34.7865 189.148 36.4376 190.529 37.6533C191.909 38.869 193.787 39.4769 196.161 39.4769C197.205 39.4855 198.244 39.354 199.244 39.0867C200.18 38.8305 201.057 38.4305 201.838 37.9047ZM188.731 30.0238C189.721 30.1712 190.814 30.2839 192.006 30.3562C193.197 30.4284 194.489 30.466 195.868 30.466C197.749 30.466 199.003 30.3118 199.631 30.0036C200.258 29.6953 200.573 29.1414 200.575 28.3419C200.603 27.7956 200.49 27.2509 200.244 26.7498C199.998 26.2487 199.626 25.8047 199.157 25.4519C198.211 24.741 196.92 24.3865 195.284 24.3884C194.485 24.3664 193.69 24.4861 192.944 24.7407C192.197 24.9952 191.516 25.3794 190.938 25.8709C189.782 26.8632 189.047 28.2475 188.731 30.0238Z" fill="#439283"/>
<path d="M213.098 26.7379C213.07 28.206 213.029 29.7858 212.975 31.4774C212.923 33.1709 212.897 34.1217 212.897 34.3356C212.873 35.7498 212.964 37.1636 213.166 38.5664C213.299 39.5021 213.587 40.4148 214.023 41.2743C213.469 41.5401 212.887 41.7578 212.286 41.9246C211.784 42.0629 211.261 42.1339 210.735 42.1355C210.045 42.1355 209.572 41.9621 209.316 41.6153C209.06 41.2686 208.933 40.5374 208.933 39.4277C208.933 39.1868 209.012 37.947 209.17 35.7083C209.328 33.4695 209.406 31.3502 209.404 29.3504C209.431 27.8906 209.348 26.4308 209.157 24.9808C209.016 24.0317 208.743 23.1018 208.346 22.2122C208.675 22.1207 209.01 22.0473 209.349 21.9926C209.67 21.9411 209.996 21.914 210.323 21.9116C211.014 21.876 211.694 22.0836 212.215 22.4896C212.705 22.9389 212.987 23.5366 213.004 24.1629C214.098 23.4563 215.301 22.8928 216.574 22.4896C217.774 22.1102 219.037 21.9148 220.31 21.9116C221.719 21.8901 223.111 22.1885 224.355 22.7786C225.513 23.328 226.465 24.1681 227.091 25.1946C227.552 25.9697 227.867 26.8061 228.026 27.6713C228.248 29.0958 228.342 30.5338 228.305 31.9716C228.305 32.1739 228.305 32.6478 228.273 33.3963C228.24 34.1448 228.24 34.7922 228.24 35.3413C228.224 36.5298 228.325 37.7174 228.542 38.8901C228.677 39.7103 228.986 40.5 229.454 41.2165C228.862 41.4823 228.249 41.7102 227.62 41.8986C227.166 42.0358 226.691 42.1099 226.212 42.1182C225.507 42.1182 225.014 41.9564 224.738 41.6269C224.462 41.2975 224.319 40.6819 224.319 39.7716C224.319 39.2244 224.369 38.0453 224.469 36.2343C224.568 34.4232 224.617 32.8819 224.615 31.6103C224.615 29.1905 224.201 27.4363 223.375 26.3477C222.548 25.2592 221.219 24.7149 219.389 24.7149C218.357 24.7316 217.336 24.9046 216.37 25.2264C215.214 25.6093 214.115 26.1169 213.098 26.7379V26.7379Z" fill="#439283"/>
<path d="M236.307 26.0558C236.05 26.0558 235.696 26.0558 235.249 26.0847C234.801 26.1136 234.505 26.1136 234.369 26.1136C233.921 26.1483 233.47 26.0692 233.07 25.8853C232.94 25.7912 232.837 25.6695 232.773 25.5312C232.708 25.3929 232.683 25.2424 232.7 25.0934C232.705 24.8863 232.739 24.6804 232.801 24.4807C232.884 24.2091 232.993 23.9443 233.126 23.6889C233.246 23.6889 233.45 23.6889 233.736 23.7091C234.022 23.7294 234.245 23.7294 234.411 23.7294C234.801 23.7294 235.424 23.7091 236.281 23.6687C236.364 23.6711 236.446 23.6643 236.527 23.6484C236.527 23.501 236.527 23.2814 236.55 22.9866C236.573 22.6919 236.573 22.478 236.573 22.3451C236.583 21.4222 236.508 20.5001 236.349 19.588C236.225 18.8651 235.993 18.1604 235.657 17.4928C236.219 17.2433 236.799 17.0289 237.394 16.8513C237.812 16.7195 238.25 16.6454 238.692 16.6316C238.946 16.612 239.201 16.6485 239.435 16.7377C239.669 16.8269 239.874 16.9662 240.033 17.1431C240.312 17.4813 240.449 18.0419 240.449 18.8164C240.449 19.1517 240.384 20.2007 240.247 21.9636C240.202 22.6196 240.163 23.1398 240.134 23.5271C241.004 23.4201 241.789 23.3421 242.487 23.2872C243.185 23.2323 243.811 23.2063 244.37 23.2063C244.746 23.1771 245.123 23.2627 245.438 23.449C245.554 23.5488 245.644 23.6708 245.701 23.806C245.757 23.9411 245.778 24.0859 245.762 24.2293C245.747 24.4889 245.678 24.7437 245.558 24.9807C245.396 25.3331 245.2 25.6724 244.973 25.9951C244.565 25.9115 244.151 25.8507 243.733 25.813C243.21 25.7701 242.685 25.7508 242.159 25.7552C242.052 25.7552 241.737 25.7552 241.211 25.7841L239.861 25.8332C239.725 27.9198 239.627 29.6374 239.569 30.986C239.507 32.3385 239.478 33.4396 239.478 34.295C239.478 36.1523 239.662 37.4528 240.03 38.1965C240.167 38.5328 240.421 38.8217 240.755 39.0216C241.089 39.2215 241.485 39.3222 241.887 39.3091C242.144 39.3064 242.4 39.2654 242.643 39.1877C242.929 39.0972 243.198 38.9686 243.441 38.8062C243.56 39.0328 243.658 39.2676 243.733 39.5085C243.791 39.6852 243.821 39.8679 243.824 40.0518C243.828 40.366 243.748 40.6764 243.589 40.9571C243.43 41.2377 243.198 41.4803 242.912 41.6644C242.224 42.1093 241.386 42.3324 240.536 42.2973C238.913 42.2973 237.709 41.8176 236.923 40.8523C236.138 39.8871 235.739 38.4277 235.739 36.4509C235.739 35.8884 235.814 34.401 235.966 31.9888C236.117 29.5767 236.231 27.599 236.307 26.0558Z" fill="#439283"/>
<path d="M123.707 32.223C122.989 33.6855 122.445 35.2111 122.084 36.7746C121.179 40.6934 121.847 43.0776 120.584 43.6209C119.322 44.1642 117.228 42.4187 116.748 42.017C116.748 42.017 112.875 38.7976 113.077 31.6132C113.085 31.078 113.125 30.5435 113.197 30.0121C113.286 28.8261 113.227 27.6349 113.021 26.4604C112.59 23.9953 111.82 23.4144 111.343 21.5475C111.236 21.1284 109.96 15.8687 113.112 13.6174C114.833 12.3892 117.124 12.5337 117.696 12.5684C120.292 12.7331 120.873 14.0307 123.736 14.3024C125.587 14.4844 125.538 13.9498 127.956 13.9411C129.79 13.9411 132.939 13.9411 134.773 15.704C136.194 17.0796 136.217 18.9205 136.233 20.2325C136.272 23.4115 134.815 24.0473 133.906 27.4748C132.799 31.6565 134.435 32.7085 133.043 38.0058C132.65 39.497 132.036 41.2541 130.283 42.2916C129.904 42.517 128.404 43.4042 127.414 42.9187C126.038 42.2424 127.206 39.6761 126.145 36.318C125.649 34.8214 124.82 33.4287 123.707 32.223V32.223Z" fill="#439283"/>
<path d="M120.046 45.1701C118.777 45.1701 117.335 44.4823 115.638 43.072C115.459 42.9217 111.236 39.3151 111.454 31.5873C111.48 30.6539 111.554 30.073 111.583 29.8534C111.655 28.7915 111.6 27.7258 111.418 26.6744C111.262 25.7536 110.972 24.8549 110.554 24.0012C110.221 23.3094 109.956 22.5928 109.762 21.8598C109.59 21.1922 108.211 15.2562 112.096 12.4819C113.719 11.3259 115.667 11.0918 116.998 11.0918C117.361 11.0918 117.647 11.1091 117.799 11.1178C119.052 11.2046 120.267 11.5414 121.354 12.1033C122.138 12.5178 123.012 12.7798 123.918 12.872C124.092 12.8905 124.266 12.9001 124.441 12.9009C124.732 12.8966 125.021 12.8577 125.301 12.7853C126.162 12.5848 127.05 12.4876 127.94 12.4963H128.29C130.034 12.4963 133.656 12.4963 135.964 14.7245C137.808 16.5076 137.834 18.7386 137.853 20.2154C137.879 22.4031 137.282 23.6024 136.649 24.8711C136.148 25.8114 135.757 26.7954 135.484 27.8073C135.12 29.1753 135.018 30.588 135.182 31.9862C135.391 34.1187 135.2 36.2674 134.617 38.3441C134.136 40.1705 133.354 42.2137 131.179 43.5026C130.757 43.7541 129.472 44.5141 128.086 44.5141C127.577 44.5192 127.076 44.4088 126.629 44.1933C125.057 43.4217 125.044 41.8814 125.035 40.3959C125.074 39.1576 124.92 37.9204 124.577 36.7199C124.446 36.3194 124.285 35.9273 124.093 35.5466C123.931 36.0552 123.792 36.5696 123.671 37.0811C123.393 38.3507 123.216 39.636 123.139 40.9277C123 42.7108 122.879 44.254 121.289 44.936C120.9 45.0974 120.475 45.1775 120.046 45.1701ZM116.998 11.6871C115.755 11.6871 113.966 11.9068 112.502 12.95C108.931 15.5048 110.23 21.117 110.395 21.7471C110.58 22.4505 110.835 23.1381 111.155 23.8018C111.594 24.6958 111.898 25.6374 112.061 26.6022C112.25 27.7005 112.307 28.8137 112.229 29.9227C112.153 30.48 112.111 31.0405 112.103 31.6018C111.892 39.0781 115.91 42.5085 116.082 42.6501C117.653 43.9564 118.949 44.5921 120.046 44.5921C120.383 44.597 120.716 44.5317 121.019 44.4014C122.272 43.8639 122.37 42.6096 122.506 40.8728C122.575 39.5564 122.748 38.246 123.022 36.9511C123.202 36.1701 123.43 35.3983 123.704 34.6391L123.938 33.9831L124.298 34.5929C124.673 35.2208 124.972 35.8825 125.191 36.5667C125.549 37.8173 125.71 39.1059 125.671 40.3959C125.671 41.8409 125.694 43.0807 126.927 43.6876C127.279 43.8572 127.673 43.9437 128.073 43.939C129.261 43.939 130.423 43.2512 130.806 43.0258C132.793 41.8467 133.523 39.9335 133.974 38.214C134.539 36.1946 134.724 34.1056 134.519 32.0324C134.355 30.5814 134.465 29.1162 134.844 27.6975C135.126 26.6504 135.529 25.6325 136.048 24.6601C136.652 23.4492 137.223 22.3048 137.197 20.2472C137.181 18.8571 137.155 16.759 135.48 15.1406C133.364 13.0974 129.933 13.0974 128.284 13.0974H127.933C127.095 13.0882 126.259 13.1776 125.447 13.3633C125.118 13.4481 124.777 13.4928 124.434 13.4962C124.236 13.4946 124.038 13.484 123.84 13.4644C122.856 13.3619 121.905 13.0795 121.049 12.635C120.042 12.1133 118.918 11.7983 117.757 11.7131C117.611 11.7045 117.339 11.6871 116.998 11.6871Z" fill="#439283"/>
<path d="M6.61199 53.9237C7.60852 53.914 8.59218 54.1245 9.47494 54.5363V55.3137C8.65247 54.87 7.70666 54.6407 6.74508 54.6519C4.51185 54.6519 2.17475 55.938 2.17475 58.6979C2.17475 61.3248 4.55405 62.5733 6.78728 62.5733C7.76921 62.5954 8.73743 62.3646 9.57556 61.9086V62.6773C8.66098 63.1006 7.64266 63.3151 6.61199 63.3016C4.05741 63.3102 1.29834 61.7612 1.29834 58.7065C1.29834 55.5362 3.99899 53.9237 6.61199 53.9237Z" fill="#439283"/>
<path d="M29.6941 54.0654V54.8081H25.9677V63.1659H25.0946V54.8081H21.3552V54.0654H29.6941Z" fill="#439283"/>
<path d="M46.2487 53.9238C49.8193 53.9238 51.5624 56.3023 51.5624 58.6171C51.5624 60.932 49.8128 63.3104 46.2487 63.3104C42.6846 63.3104 40.9351 60.932 40.9351 58.6171C40.9351 56.3023 42.6879 53.9238 46.2487 53.9238ZM46.2487 54.6521C43.2559 54.6521 41.8115 56.6404 41.8115 58.6171C41.8115 60.5938 43.2559 62.5821 46.2487 62.5821C49.2415 62.5821 50.6892 60.5938 50.6892 58.6171C50.6892 56.6404 49.2415 54.6521 46.2487 54.6521Z" fill="#439283"/>
<path d="M74.9494 54.0654V63.1659H74.0892V55.548L70.0609 60.8539H69.5189L65.4906 55.548V63.1659H64.6272V54.0654H65.3575L69.7883 59.9031L74.2125 54.0654H74.9494Z" fill="#439283"/>
<path d="M87.4756 63.1659L92.0199 54.0654H92.9937L97.5381 63.1659H96.6033L95.3893 60.7239H89.6374L88.4104 63.1659H87.4756ZM89.9717 59.9869H95.0517L92.6432 55.1376C92.601 55.0336 92.5555 54.9411 92.5133 54.8486C92.4679 54.9382 92.4257 55.0307 92.3803 55.1376L89.9717 59.9869Z" fill="#439283"/>
<path d="M116.134 54.0654V54.8081H112.395V63.1659H111.535V54.8081H107.795V54.0654H116.134Z" fill="#439283"/>
<path d="M132.689 53.9238C136.259 53.9238 138.003 56.3023 138.003 58.6171C138.003 60.932 136.253 63.3104 132.689 63.3104C129.125 63.3104 127.375 60.932 127.375 58.6171C127.375 56.3023 129.128 53.9238 132.689 53.9238ZM132.689 54.6521C129.696 54.6521 128.252 56.6404 128.252 58.6171C128.252 60.5938 129.696 62.5821 132.689 62.5821C135.682 62.5821 137.129 60.5938 137.129 58.6171C137.129 56.6404 135.682 54.6521 132.689 54.6521Z" fill="#439283"/>
<path d="M158.618 54.0654V63.1659H157.754V54.8081H153.421C153.012 59.143 152.603 63.2843 150.045 63.2959C149.766 63.2943 149.489 63.2503 149.227 63.1659V62.4231C149.446 62.4997 149.68 62.5351 149.915 62.5272C151.863 62.5272 152.223 58.3281 152.587 54.0625L158.618 54.0654Z" fill="#439283"/>
<path d="M176.996 53.9238C180.567 53.9238 182.31 56.3023 182.31 58.6171C182.31 60.932 180.56 63.3104 176.996 63.3104C173.432 63.3104 171.683 60.932 171.683 58.6171C171.683 56.3023 173.435 53.9238 176.996 53.9238ZM176.996 54.6521C174.003 54.6521 172.559 56.6404 172.559 58.6171C172.559 60.5938 174.003 62.5821 176.996 62.5821C179.989 62.5821 181.45 60.5938 181.45 58.6171C181.45 56.6404 179.989 54.6521 176.996 54.6521Z" fill="#439283"/>
<path d="M195.375 63.1659V54.0654H202.032V54.8081H196.238V63.1659H195.375Z" fill="#439283"/>
<path d="M222.093 63.1658V55.3629L215.39 63.1658H214.601V54.0653H215.464V61.8451L222.164 54.0566H222.953V63.1571L222.093 63.1658Z" fill="#439283"/>
<path d="M235.8 63.1659L238.881 59.643C237.349 59.354 236.209 58.461 236.209 56.9005C236.209 54.9642 238.004 54.0654 240.078 54.0654H243.86V63.1659H242.997V59.7471H239.845L236.852 63.1659H235.8ZM240.02 59.0072H242.971V54.8081H240.02C238.397 54.8081 237.099 55.4699 237.099 56.9005C237.099 58.331 238.397 59.0072 240.033 59.0072H240.02Z" fill="#439283"/>
</g>
<defs>
<clipPath id="clip0_1_6">
<rect width="245.756" height="71.7778" fill="white"/>
</clipPath>
</defs>
</svg>
