<svg width="381" height="146" viewBox="0 0 381 146" fill="none" xmlns="http://www.w3.org/2000/svg">
<path d="M43.4375 45V0.1875H67.375V4.9375H48.6875V19.1875H57.1875C61.6458 19.1875 65.1146 20.2708 67.5938 22.4375C70.0729 24.5833 71.3125 27.6458 71.3125 31.625C71.3125 35.75 70.0104 39.0104 67.4062 41.4062C64.8021 43.8021 61.25 45 56.75 45H43.4375ZM48.6875 23.9375V40.25H56.0625C59.1667 40.25 61.5625 39.5208 63.25 38.0625C64.9375 36.6042 65.7812 34.5625 65.7812 31.9375C65.7812 26.6042 62.5417 23.9375 56.0625 23.9375H48.6875ZM105.094 30.2812H82.5C82.5833 33.8438 83.5417 36.5938 85.375 38.5312C87.2083 40.4688 89.7292 41.4375 92.9375 41.4375C96.5417 41.4375 99.8542 40.25 102.875 37.875V42.6875C100.062 44.7292 96.3438 45.75 91.7188 45.75C87.1979 45.75 83.6458 44.3021 81.0625 41.4062C78.4792 38.4896 77.1875 34.3958 77.1875 29.125C77.1875 24.1458 78.5938 20.0938 81.4062 16.9688C84.2396 13.8229 87.75 12.25 91.9375 12.25C96.125 12.25 99.3646 13.6042 101.656 16.3125C103.948 19.0208 105.094 22.7812 105.094 27.5938V30.2812ZM99.8438 25.9375C99.8229 22.9792 99.1042 20.6771 97.6875 19.0312C96.2917 17.3854 94.3438 16.5625 91.8438 16.5625C89.4271 16.5625 87.375 17.4271 85.6875 19.1562C84 20.8854 82.9583 23.1458 82.5625 25.9375H99.8438ZM134.688 43.5312C132.229 45.0104 129.312 45.75 125.938 45.75C121.375 45.75 117.688 44.2708 114.875 41.3125C112.083 38.3333 110.688 34.4792 110.688 29.75C110.688 24.4792 112.198 20.25 115.219 17.0625C118.24 13.8542 122.271 12.25 127.312 12.25C130.125 12.25 132.604 12.7708 134.75 13.8125V19.0625C132.375 17.3958 129.833 16.5625 127.125 16.5625C123.854 16.5625 121.167 17.7396 119.062 20.0938C116.979 22.4271 115.938 25.5 115.938 29.3125C115.938 33.0625 116.917 36.0208 118.875 38.1875C120.854 40.3542 123.5 41.4375 126.812 41.4375C129.604 41.4375 132.229 40.5104 134.688 38.6562V43.5312ZM169 45H163.875V17.375H147.562V45H142.438V13H169V45ZM192.75 45.75C188.021 45.75 184.24 44.2604 181.406 41.2812C178.594 38.2812 177.188 34.3125 177.188 29.375C177.188 24 178.656 19.8021 181.594 16.7812C184.531 13.7604 188.5 12.25 193.5 12.25C198.271 12.25 201.99 13.7188 204.656 16.6562C207.344 19.5938 208.688 23.6667 208.688 28.875C208.688 33.9792 207.24 38.0729 204.344 41.1562C201.469 44.2188 197.604 45.75 192.75 45.75ZM193.125 16.5625C189.833 16.5625 187.229 17.6875 185.312 19.9375C183.396 22.1667 182.438 25.25 182.438 29.1875C182.438 32.9792 183.406 35.9688 185.344 38.1562C187.281 40.3438 189.875 41.4375 193.125 41.4375C196.438 41.4375 198.979 40.3646 200.75 38.2188C202.542 36.0729 203.438 33.0208 203.438 29.0625C203.438 25.0625 202.542 21.9792 200.75 19.8125C198.979 17.6458 196.438 16.5625 193.125 16.5625ZM243.438 45H236.25L222.125 29.625H222V45H216.875V13H222V27.6562H222.125L235.562 13H242.281L227.438 28.4375L243.438 45ZM262.062 45.75C257.333 45.75 253.552 44.2604 250.719 41.2812C247.906 38.2812 246.5 34.3125 246.5 29.375C246.5 24 247.969 19.8021 250.906 16.7812C253.844 13.7604 257.812 12.25 262.812 12.25C267.583 12.25 271.302 13.7188 273.969 16.6562C276.656 19.5938 278 23.6667 278 28.875C278 33.9792 276.552 38.0729 273.656 41.1562C270.781 44.2188 266.917 45.75 262.062 45.75ZM262.438 16.5625C259.146 16.5625 256.542 17.6875 254.625 19.9375C252.708 22.1667 251.75 25.25 251.75 29.1875C251.75 32.9792 252.719 35.9688 254.656 38.1562C256.594 40.3438 259.188 41.4375 262.438 41.4375C265.75 41.4375 268.292 40.3646 270.062 38.2188C271.854 36.0729 272.75 33.0208 272.75 29.0625C272.75 25.0625 271.854 21.9792 270.062 19.8125C268.292 17.6458 265.75 16.5625 262.438 16.5625ZM313 45H308.375V19.4688C307.917 20.3646 307.219 21.625 306.281 23.25L291.5 45H286.188V13H290.875V38.2188C291.125 37.6146 291.667 36.5833 292.5 35.125L307.688 13H313V45ZM343.469 17.375H333.875V45H328.75V17.375H319.125V13H343.469V17.375ZM0.9375 129.094V124.062C3.72917 125.625 6.98958 126.406 10.7188 126.406C16.3646 126.406 19.1875 124.615 19.1875 121.031C19.1875 117.49 16.0938 115.719 9.90625 115.719H6.75V111.375H9.75C15.1875 111.375 17.9062 109.688 17.9062 106.312C17.9062 104.875 17.2812 103.729 16.0312 102.875C14.7812 102.021 13.0729 101.594 10.9062 101.594C7.80208 101.594 4.6875 102.375 1.5625 103.938V99.1562C5.10417 97.8646 8.35417 97.2188 11.3125 97.2188C19.1042 97.2188 23 100.083 23 105.812C23 107.667 22.4167 109.271 21.25 110.625C20.1042 111.958 18.4896 112.844 16.4062 113.281V113.438C18.7812 113.625 20.6875 114.427 22.125 115.844C23.5625 117.26 24.2812 119.052 24.2812 121.219C24.2812 124.135 23.1042 126.458 20.75 128.188C18.3958 129.917 15.1562 130.781 11.0312 130.781C6.63542 130.781 3.27083 130.219 0.9375 129.094ZM57.6562 98L42.9375 135.125C40.3125 141.75 36.625 145.062 31.875 145.062C30.5417 145.062 29.4271 144.927 28.5312 144.656V140.062C29.6354 140.438 30.6458 140.625 31.5625 140.625C34.1458 140.625 36.0833 139.083 37.375 136L39.9375 129.938L27.4375 98H33.125L41.7812 122.625C41.8854 122.938 42.1042 123.75 42.4375 125.062H42.625C42.7292 124.562 42.9375 123.771 43.25 122.688L52.3438 98H57.6562ZM87.9375 82.25V87.0625C87.0833 87.6875 85.7083 88.1562 83.8125 88.4688C79.125 89.1771 75.8438 89.8646 73.9688 90.5312C72.1146 91.1771 70.5833 92.5729 69.375 94.7188C68.1875 96.8646 67.4271 100 67.0938 104.125H67.2188C69.7188 100.5 73.2812 98.6875 77.9062 98.6875C82.1354 98.6875 85.5417 100.135 88.125 103.031C90.7083 105.927 92 109.75 92 114.5C92 119.396 90.6458 123.333 87.9375 126.312C85.25 129.271 81.625 130.75 77.0625 130.75C72.1458 130.75 68.3542 129.01 65.6875 125.531C63.0417 122.031 61.7188 117.042 61.7188 110.562C61.7188 105.521 62.1979 101.25 63.1562 97.75C64.1146 94.2292 65.4375 91.5833 67.125 89.8125C68.8333 88.0417 70.7188 86.8229 72.7812 86.1562C74.8646 85.4896 78.4271 84.7083 83.4688 83.8125C85.4688 83.3542 86.9583 82.8333 87.9375 82.25ZM67.0312 109.188V113.625C67.0521 115.292 67.3021 116.927 67.7812 118.531C68.2604 120.135 68.9479 121.552 69.8438 122.781C70.7396 124.01 71.7917 124.927 73 125.531C74.2292 126.135 75.625 126.438 77.1875 126.438C80.0417 126.438 82.3438 125.375 84.0938 123.25C85.8646 121.104 86.75 118.365 86.75 115.031C86.75 111.365 85.8438 108.458 84.0312 106.312C82.2396 104.146 79.8125 103.062 76.75 103.062C72.4583 103.062 69.2188 105.104 67.0312 109.188ZM126.812 130H121.688V115.469H105.375V130H100.25V98H105.375V111.125H121.688V98H126.812V130ZM160.094 130H154.969V125H154.844C152.615 128.833 149.333 130.75 145 130.75C141.812 130.75 139.312 129.906 137.5 128.219C135.708 126.531 134.812 124.292 134.812 121.5C134.812 115.521 138.333 112.042 145.375 111.062L154.969 109.719C154.969 104.281 152.771 101.562 148.375 101.562C144.521 101.562 141.042 102.875 137.938 105.5V100.25C141.083 98.25 144.708 97.25 148.812 97.25C156.333 97.25 160.094 101.229 160.094 109.188V130ZM154.969 113.812L147.25 114.875C144.875 115.208 143.083 115.802 141.875 116.656C140.667 117.49 140.062 118.979 140.062 121.125C140.062 122.688 140.615 123.969 141.719 124.969C142.844 125.948 144.333 126.438 146.188 126.438C148.729 126.438 150.823 125.552 152.469 123.781C154.135 121.99 154.969 119.729 154.969 117V113.812ZM191.625 130H186.5V116.75H182.219C180.156 116.75 178.281 118.417 176.594 121.75L172.438 130H166.5L171.875 120.125C173.125 117.833 174.635 116.323 176.406 115.594C173.906 115.26 172 114.344 170.688 112.844C169.375 111.344 168.719 109.469 168.719 107.219C168.719 104.385 169.74 102.146 171.781 100.5C173.844 98.8333 176.729 98 180.438 98H191.625V130ZM186.5 112.469V102.375H180.438C176.125 102.375 173.969 104.01 173.969 107.281C173.969 110.74 176.062 112.469 180.25 112.469H186.5ZM244.25 82.25V87.0625C243.396 87.6875 242.021 88.1562 240.125 88.4688C235.438 89.1771 232.156 89.8646 230.281 90.5312C228.427 91.1771 226.896 92.5729 225.688 94.7188C224.5 96.8646 223.74 100 223.406 104.125H223.531C226.031 100.5 229.594 98.6875 234.219 98.6875C238.448 98.6875 241.854 100.135 244.438 103.031C247.021 105.927 248.312 109.75 248.312 114.5C248.312 119.396 246.958 123.333 244.25 126.312C241.562 129.271 237.938 130.75 233.375 130.75C228.458 130.75 224.667 129.01 222 125.531C219.354 122.031 218.031 117.042 218.031 110.562C218.031 105.521 218.51 101.25 219.469 97.75C220.427 94.2292 221.75 91.5833 223.438 89.8125C225.146 88.0417 227.031 86.8229 229.094 86.1562C231.177 85.4896 234.74 84.7083 239.781 83.8125C241.781 83.3542 243.271 82.8333 244.25 82.25ZM223.344 109.188V113.625C223.365 115.292 223.615 116.927 224.094 118.531C224.573 120.135 225.26 121.552 226.156 122.781C227.052 124.01 228.104 124.927 229.312 125.531C230.542 126.135 231.938 126.438 233.5 126.438C236.354 126.438 238.656 125.375 240.406 123.25C242.177 121.104 243.062 118.365 243.062 115.031C243.062 111.365 242.156 108.458 240.344 106.312C238.552 104.146 236.125 103.062 233.062 103.062C228.771 103.062 225.531 105.104 223.344 109.188ZM269.938 130.75C265.208 130.75 261.427 129.26 258.594 126.281C255.781 123.281 254.375 119.312 254.375 114.375C254.375 109 255.844 104.802 258.781 101.781C261.719 98.7604 265.688 97.25 270.688 97.25C275.458 97.25 279.177 98.7188 281.844 101.656C284.531 104.594 285.875 108.667 285.875 113.875C285.875 118.979 284.427 123.073 281.531 126.156C278.656 129.219 274.792 130.75 269.938 130.75ZM270.312 101.562C267.021 101.562 264.417 102.688 262.5 104.938C260.583 107.167 259.625 110.25 259.625 114.188C259.625 117.979 260.594 120.969 262.531 123.156C264.469 125.344 267.062 126.438 270.312 126.438C273.625 126.438 276.167 125.365 277.938 123.219C279.729 121.073 280.625 118.021 280.625 114.062C280.625 110.062 279.729 106.979 277.938 104.812C276.167 102.646 273.625 101.562 270.312 101.562ZM317.406 130H312.312V102.344H304.875C304.021 112.698 302.552 119.969 300.469 124.156C298.406 128.344 295.625 130.438 292.125 130.438C291.062 130.438 290.146 130.292 289.375 130V125.594C290.104 125.969 290.896 126.156 291.75 126.156C296.333 126.156 299.281 116.771 300.594 98H317.406V130ZM327.812 130V98H332.938V110.281H341.562C344.833 110.281 347.427 111.135 349.344 112.844C351.281 114.552 352.25 116.938 352.25 120C352.25 123.083 351.281 125.521 349.344 127.312C347.406 129.104 344.958 130 342 130H327.812ZM332.938 114.688V125.625H340.625C344.875 125.625 347 123.75 347 120C347 116.458 344.854 114.688 340.562 114.688H332.938ZM365.344 117.562C365.156 117.021 364.99 116.323 364.844 115.469C364.698 114.594 364.625 113.729 364.625 112.875C364.625 111.542 364.885 110.344 365.406 109.281C365.948 108.198 366.615 107.188 367.406 106.25C368.198 105.312 369.062 104.417 370 103.562C370.938 102.688 371.802 101.812 372.594 100.938C373.385 100.042 374.042 99.1146 374.562 98.1562C375.104 97.1771 375.375 96.1042 375.375 94.9375C375.375 93.9375 375.177 93.0521 374.781 92.2812C374.406 91.5104 373.885 90.8646 373.219 90.3438C372.552 89.8229 371.781 89.4375 370.906 89.1875C370.031 88.9167 369.104 88.7812 368.125 88.7812C364.604 88.7812 361.552 90.1667 358.969 92.9375V87.4375C362.156 85.4375 365.458 84.4375 368.875 84.4375C370.458 84.4375 371.948 84.6458 373.344 85.0625C374.74 85.4792 375.958 86.1042 377 86.9375C378.062 87.75 378.896 88.7708 379.5 90C380.104 91.2292 380.406 92.6562 380.406 94.2812C380.406 95.8229 380.135 97.1979 379.594 98.4062C379.052 99.6146 378.365 100.729 377.531 101.75C376.719 102.75 375.833 103.688 374.875 104.562C373.917 105.438 373.021 106.312 372.188 107.188C371.375 108.042 370.698 108.938 370.156 109.875C369.615 110.812 369.344 111.844 369.344 112.969C369.344 113.927 369.458 114.802 369.688 115.594C369.917 116.365 370.146 117.021 370.375 117.562H365.344ZM368.156 130.562C367.24 130.562 366.427 130.229 365.719 129.562C365.031 128.896 364.688 128.083 364.688 127.125C364.688 126.146 365.031 125.333 365.719 124.688C366.406 124 367.219 123.656 368.156 123.656C369.094 123.656 369.906 124 370.594 124.688C371.281 125.333 371.625 126.146 371.625 127.125C371.625 128.083 371.281 128.896 370.594 129.562C369.885 130.229 369.073 130.562 368.156 130.562Z" fill="black"/>
</svg>
