<svg width="418" height="98" viewBox="0 0 418 98" fill="none" xmlns="http://www.w3.org/2000/svg">
<ellipse cx="209" cy="49" rx="209" ry="49" fill="#F8A441"/>
<path d="M43.6875 61.9453V58.7461C45.6562 60.1875 47.8887 60.9082 50.3848 60.9082C52.2012 60.9082 53.6426 60.4688 54.709 59.5898C55.7871 58.7109 56.3262 57.5273 56.3262 56.0391C56.3262 52.8047 54.1406 51.1875 49.7695 51.1875H47.1504V48.7441H49.5586C51.4219 48.7441 52.8633 48.3398 53.8828 47.5312C54.9141 46.7227 55.4297 45.5801 55.4297 44.1035C55.4297 42.8379 55.002 41.8242 54.1465 41.0625C53.3027 40.3008 52.1367 39.9199 50.6484 39.9199C48.5391 39.9199 46.4883 40.582 44.4961 41.9062V38.918C46.3477 37.8867 48.4805 37.3711 50.8945 37.3711C53.2852 37.3711 55.166 37.9395 56.5371 39.0762C57.9082 40.2129 58.5938 41.707 58.5938 43.5586C58.5938 46.8281 57 48.8906 53.8125 49.7461V49.8164C55.5469 50.0156 56.9238 50.666 57.9434 51.7676C58.9629 52.8691 59.4727 54.2344 59.4727 55.8633C59.4727 58.1719 58.6523 60.0117 57.0117 61.3828C55.3711 62.7422 53.127 63.4219 50.2793 63.4219C47.4316 63.4219 45.2344 62.9297 43.6875 61.9453ZM77.2441 63H74.3613V60.1875H74.291C73.0371 62.3438 71.1914 63.4219 68.7539 63.4219C66.9609 63.4219 65.5547 62.9473 64.5352 61.998C63.5273 61.0488 63.0234 59.7891 63.0234 58.2188C63.0234 54.8555 65.0039 52.8984 68.9648 52.3477L74.3613 51.5918C74.3613 48.5332 73.125 47.0039 70.6523 47.0039C68.4844 47.0039 66.5273 47.7422 64.7812 49.2188V46.2656C66.5508 45.1406 68.5898 44.5781 70.8984 44.5781C75.1289 44.5781 77.2441 46.8164 77.2441 51.293V63ZM74.3613 53.8945L70.0195 54.4922C68.6836 54.6797 67.6758 55.0137 66.9961 55.4941C66.3164 55.9629 65.9766 56.8008 65.9766 58.0078C65.9766 58.8867 66.2871 59.6074 66.9082 60.1699C67.541 60.7207 68.3789 60.9961 69.4219 60.9961C70.8516 60.9961 72.0293 60.498 72.9551 59.502C73.8926 58.4941 74.3613 57.2227 74.3613 55.6875V53.8945ZM97.6172 63H94.7344V47.4609H85.5586V63H82.6758V45H97.6172V63ZM118.535 63H115.934V48.6387C115.676 49.1426 115.283 49.8516 114.756 50.7656L106.441 63H103.453V45H106.09V59.1855C106.23 58.8457 106.535 58.2656 107.004 57.4453L115.547 45H118.535V63ZM136.641 62.1738C135.258 63.0059 133.617 63.4219 131.719 63.4219C129.152 63.4219 127.078 62.5898 125.496 60.9258C123.926 59.25 123.141 57.082 123.141 54.4219C123.141 51.457 123.99 49.0781 125.689 47.2852C127.389 45.4805 129.656 44.5781 132.492 44.5781C134.074 44.5781 135.469 44.8711 136.676 45.457V48.4102C135.34 47.4727 133.91 47.0039 132.387 47.0039C130.547 47.0039 129.035 47.666 127.852 48.9902C126.68 50.3027 126.094 52.0312 126.094 54.1758C126.094 56.2852 126.645 57.9492 127.746 59.168C128.859 60.3867 130.348 60.9961 132.211 60.9961C133.781 60.9961 135.258 60.4746 136.641 59.4316V62.1738ZM153.885 63H151.002V60.1875H150.932C149.678 62.3438 147.832 63.4219 145.395 63.4219C143.602 63.4219 142.195 62.9473 141.176 61.998C140.168 61.0488 139.664 59.7891 139.664 58.2188C139.664 54.8555 141.645 52.8984 145.605 52.3477L151.002 51.5918C151.002 48.5332 149.766 47.0039 147.293 47.0039C145.125 47.0039 143.168 47.7422 141.422 49.2188V46.2656C143.191 45.1406 145.23 44.5781 147.539 44.5781C151.77 44.5781 153.885 46.8164 153.885 51.293V63ZM151.002 53.8945L146.66 54.4922C145.324 54.6797 144.316 55.0137 143.637 55.4941C142.957 55.9629 142.617 56.8008 142.617 58.0078C142.617 58.8867 142.928 59.6074 143.549 60.1699C144.182 60.7207 145.02 60.9961 146.062 60.9961C147.492 60.9961 148.67 60.498 149.596 59.502C150.533 58.4941 151.002 57.2227 151.002 55.6875V53.8945ZM170.619 47.4609H165.223V63H162.34V47.4609H156.926V45H170.619V47.4609ZM174.082 63V45H176.965V51.9082H181.816C183.656 51.9082 185.115 52.3887 186.193 53.3496C187.283 54.3105 187.828 55.6523 187.828 57.375C187.828 59.1094 187.283 60.4805 186.193 61.4883C185.104 62.4961 183.727 63 182.062 63H174.082ZM176.965 54.3867V60.5391H181.289C183.68 60.5391 184.875 59.4844 184.875 57.375C184.875 55.3828 183.668 54.3867 181.254 54.3867H176.965ZM204.492 62.1738C203.109 63.0059 201.469 63.4219 199.57 63.4219C197.004 63.4219 194.93 62.5898 193.348 60.9258C191.777 59.25 190.992 57.082 190.992 54.4219C190.992 51.457 191.842 49.0781 193.541 47.2852C195.24 45.4805 197.508 44.5781 200.344 44.5781C201.926 44.5781 203.32 44.8711 204.527 45.457V48.4102C203.191 47.4727 201.762 47.0039 200.238 47.0039C198.398 47.0039 196.887 47.666 195.703 48.9902C194.531 50.3027 193.945 52.0312 193.945 54.1758C193.945 56.2852 194.496 57.9492 195.598 59.168C196.711 60.3867 198.199 60.9961 200.062 60.9961C201.633 60.9961 203.109 60.4746 204.492 59.4316V62.1738ZM221.156 63H218.273V55.5469H215.865C214.705 55.5469 213.65 56.4844 212.701 58.3594L210.363 63H207.023L210.047 57.4453C210.75 56.1562 211.6 55.3066 212.596 54.8965C211.189 54.709 210.117 54.1934 209.379 53.3496C208.641 52.5059 208.271 51.4512 208.271 50.1855C208.271 48.5918 208.846 47.332 209.994 46.4062C211.154 45.4688 212.777 45 214.863 45H221.156V63ZM218.273 53.1387V47.4609H214.863C212.438 47.4609 211.225 48.3809 211.225 50.2207C211.225 52.166 212.402 53.1387 214.758 53.1387H218.273ZM251.777 63H248.895V54.8262H239.719V63H236.836V45H239.719V52.3828H248.895V45H251.777V63ZM270.498 63H267.615V60.1875H267.545C266.291 62.3438 264.445 63.4219 262.008 63.4219C260.215 63.4219 258.809 62.9473 257.789 61.998C256.781 61.0488 256.277 59.7891 256.277 58.2188C256.277 54.8555 258.258 52.8984 262.219 52.3477L267.615 51.5918C267.615 48.5332 266.379 47.0039 263.906 47.0039C261.738 47.0039 259.781 47.7422 258.035 49.2188V46.2656C259.805 45.1406 261.844 44.5781 264.152 44.5781C268.383 44.5781 270.498 46.8164 270.498 51.293V63ZM267.615 53.8945L263.273 54.4922C261.938 54.6797 260.93 55.0137 260.25 55.4941C259.57 55.9629 259.23 56.8008 259.23 58.0078C259.23 58.8867 259.541 59.6074 260.162 60.1699C260.795 60.7207 261.633 60.9961 262.676 60.9961C264.105 60.9961 265.283 60.498 266.209 59.502C267.146 58.4941 267.615 57.2227 267.615 55.6875V53.8945ZM300.75 63H297.867V47.4609H288.691V63H285.809V45H300.75V63ZM309.539 60.3984H309.469V71.2793H306.586V45H309.469V48.1641H309.539C310.957 45.7734 313.031 44.5781 315.762 44.5781C318.082 44.5781 319.893 45.3867 321.193 47.0039C322.494 48.6094 323.145 50.7656 323.145 53.4727C323.145 56.4844 322.412 58.8984 320.947 60.7148C319.482 62.5195 317.479 63.4219 314.936 63.4219C312.604 63.4219 310.805 62.4141 309.539 60.3984ZM309.469 53.1387V55.6523C309.469 57.1406 309.949 58.4062 310.91 59.4492C311.883 60.4805 313.113 60.9961 314.602 60.9961C316.348 60.9961 317.713 60.3281 318.697 58.9922C319.693 57.6562 320.191 55.7988 320.191 53.4199C320.191 51.416 319.729 49.8457 318.803 48.709C317.877 47.5723 316.623 47.0039 315.041 47.0039C313.365 47.0039 312.018 47.5898 310.998 48.7617C309.979 49.9219 309.469 51.3809 309.469 53.1387ZM342.832 63H340.23V48.6387C339.973 49.1426 339.58 49.8516 339.053 50.7656L330.738 63H327.75V45H330.387V59.1855C330.527 58.8457 330.832 58.2656 331.301 57.4453L339.844 45H342.832V63ZM363.135 54.7207H350.426C350.473 56.7246 351.012 58.2715 352.043 59.3613C353.074 60.4512 354.492 60.9961 356.297 60.9961C358.324 60.9961 360.188 60.3281 361.887 58.9922V61.6992C360.305 62.8477 358.213 63.4219 355.611 63.4219C353.068 63.4219 351.07 62.6074 349.617 60.9785C348.164 59.3379 347.438 57.0352 347.438 54.0703C347.438 51.2695 348.229 48.9902 349.811 47.2324C351.404 45.4629 353.379 44.5781 355.734 44.5781C358.09 44.5781 359.912 45.3398 361.201 46.8633C362.49 48.3867 363.135 50.502 363.135 53.209V54.7207ZM360.182 52.2773C360.17 50.6133 359.766 49.3184 358.969 48.3926C358.184 47.4668 357.088 47.0039 355.682 47.0039C354.322 47.0039 353.168 47.4902 352.219 48.4629C351.27 49.4355 350.684 50.707 350.461 52.2773H360.182ZM358.705 41.5898C358.236 41.5898 357.832 41.4258 357.492 41.0977C357.152 40.7695 356.982 40.3535 356.982 39.8496C356.982 39.3574 357.146 38.9473 357.475 38.6191C357.803 38.291 358.201 38.127 358.67 38.127C359.162 38.127 359.578 38.2969 359.918 38.6367C360.258 38.9648 360.428 39.3691 360.428 39.8496C360.428 40.3301 360.264 40.7402 359.936 41.0801C359.607 41.4199 359.197 41.5898 358.705 41.5898ZM351.955 41.5898C351.463 41.5898 351.041 41.4199 350.689 41.0801C350.35 40.7285 350.18 40.3184 350.18 39.8496C350.18 39.3574 350.344 38.9473 350.672 38.6191C351.012 38.291 351.422 38.127 351.902 38.127C352.383 38.127 352.799 38.2969 353.15 38.6367C353.502 38.9648 353.678 39.3691 353.678 39.8496C353.678 40.3301 353.508 40.7402 353.168 41.0801C352.828 41.4199 352.424 41.5898 351.955 41.5898ZM386.953 63H384.105V48.1641C383.848 48.9141 383.449 50.0156 382.91 51.4688L378.41 63H375.826L371.186 51.4688C370.939 50.8477 370.541 49.7461 369.99 48.1641V63H367.512V45H371.186L375.932 56.7422C376.271 57.5977 376.705 58.7812 377.232 60.293L378.516 56.8125L383.121 45H386.953V63Z" fill="black"/>
</svg>
