<svg width="438" height="356" viewBox="0 0 438 356" fill="none" xmlns="http://www.w3.org/2000/svg">
<path d="M21.1719 280V246.391H30.7344C33.6406 246.391 35.9453 247.102 37.6484 248.523C39.3516 249.945 40.2031 251.797 40.2031 254.078C40.2031 255.984 39.6875 257.641 38.6562 259.047C37.625 260.453 36.2031 261.453 34.3906 262.047V262.141C36.6562 262.406 38.4688 263.266 39.8281 264.719C41.1875 266.156 41.8672 268.031 41.8672 270.344C41.8672 273.219 40.8359 275.547 38.7734 277.328C36.7109 279.109 34.1094 280 30.9688 280H21.1719ZM25.1094 249.953V260.805H29.1406C31.2969 260.805 32.9922 260.289 34.2266 259.258C35.4609 258.211 36.0781 256.742 36.0781 254.852C36.0781 251.586 33.9297 249.953 29.6328 249.953H25.1094ZM25.1094 264.344V276.438H30.4531C32.7656 276.438 34.5547 275.891 35.8203 274.797C37.1016 273.703 37.7422 272.203 37.7422 270.297C37.7422 266.328 35.0391 264.344 29.6328 264.344H25.1094ZM74.4219 280H70.625V256H74.4219V280ZM48.1719 280V256H52.0156V265.211H58.4844C60.9375 265.211 62.8828 265.852 64.3203 267.133C65.7734 268.414 66.5 270.203 66.5 272.5C66.5 274.812 65.7734 276.641 64.3203 277.984C62.8672 279.328 61.0312 280 58.8125 280H48.1719ZM52.0156 268.516V276.719H57.7812C60.9688 276.719 62.5625 275.312 62.5625 272.5C62.5625 269.844 60.9531 268.516 57.7344 268.516H52.0156ZM105.453 280.562C101.906 280.562 99.0703 279.445 96.9453 277.211C94.8359 274.961 93.7812 271.984 93.7812 268.281C93.7812 264.25 94.8828 261.102 97.0859 258.836C99.2891 256.57 102.266 255.438 106.016 255.438C109.594 255.438 112.383 256.539 114.383 258.742C116.398 260.945 117.406 264 117.406 267.906C117.406 271.734 116.32 274.805 114.148 277.117C111.992 279.414 109.094 280.562 105.453 280.562ZM105.734 258.672C103.266 258.672 101.312 259.516 99.875 261.203C98.4375 262.875 97.7188 265.188 97.7188 268.141C97.7188 270.984 98.4453 273.227 99.8984 274.867C101.352 276.508 103.297 277.328 105.734 277.328C108.219 277.328 110.125 276.523 111.453 274.914C112.797 273.305 113.469 271.016 113.469 268.047C113.469 265.047 112.797 262.734 111.453 261.109C110.125 259.484 108.219 258.672 105.734 258.672ZM142.109 244.188V247.797C141.469 248.266 140.438 248.617 139.016 248.852C135.5 249.383 133.039 249.898 131.633 250.398C130.242 250.883 129.094 251.93 128.188 253.539C127.297 255.148 126.727 257.5 126.477 260.594H126.57C128.445 257.875 131.117 256.516 134.586 256.516C137.758 256.516 140.312 257.602 142.25 259.773C144.188 261.945 145.156 264.812 145.156 268.375C145.156 272.047 144.141 275 142.109 277.234C140.094 279.453 137.375 280.562 133.953 280.562C130.266 280.562 127.422 279.258 125.422 276.648C123.438 274.023 122.445 270.281 122.445 265.422C122.445 261.641 122.805 258.438 123.523 255.812C124.242 253.172 125.234 251.188 126.5 249.859C127.781 248.531 129.195 247.617 130.742 247.117C132.305 246.617 134.977 246.031 138.758 245.359C140.258 245.016 141.375 244.625 142.109 244.188ZM126.43 264.391V267.719C126.445 268.969 126.633 270.195 126.992 271.398C127.352 272.602 127.867 273.664 128.539 274.586C129.211 275.508 130 276.195 130.906 276.648C131.828 277.102 132.875 277.328 134.047 277.328C136.188 277.328 137.914 276.531 139.227 274.938C140.555 273.328 141.219 271.273 141.219 268.773C141.219 266.023 140.539 263.844 139.18 262.234C137.836 260.609 136.016 259.797 133.719 259.797C130.5 259.797 128.07 261.328 126.43 264.391ZM155.281 276.531H155.188V291.039H151.344V256H155.188V260.219H155.281C157.172 257.031 159.938 255.438 163.578 255.438C166.672 255.438 169.086 256.516 170.82 258.672C172.555 260.812 173.422 263.688 173.422 267.297C173.422 271.312 172.445 274.531 170.492 276.953C168.539 279.359 165.867 280.562 162.477 280.562C159.367 280.562 156.969 279.219 155.281 276.531ZM155.188 266.852V270.203C155.188 272.188 155.828 273.875 157.109 275.266C158.406 276.641 160.047 277.328 162.031 277.328C164.359 277.328 166.18 276.438 167.492 274.656C168.82 272.875 169.484 270.398 169.484 267.227C169.484 264.555 168.867 262.461 167.633 260.945C166.398 259.43 164.727 258.672 162.617 258.672C160.383 258.672 158.586 259.453 157.227 261.016C155.867 262.562 155.188 264.508 155.188 266.852ZM196.742 280H192.898V276.25H192.805C191.133 279.125 188.672 280.562 185.422 280.562C183.031 280.562 181.156 279.93 179.797 278.664C178.453 277.398 177.781 275.719 177.781 273.625C177.781 269.141 180.422 266.531 185.703 265.797L192.898 264.789C192.898 260.711 191.25 258.672 187.953 258.672C185.062 258.672 182.453 259.656 180.125 261.625V257.688C182.484 256.188 185.203 255.438 188.281 255.438C193.922 255.438 196.742 258.422 196.742 264.391V280ZM192.898 267.859L187.109 268.656C185.328 268.906 183.984 269.352 183.078 269.992C182.172 270.617 181.719 271.734 181.719 273.344C181.719 274.516 182.133 275.477 182.961 276.227C183.805 276.961 184.922 277.328 186.312 277.328C188.219 277.328 189.789 276.664 191.023 275.336C192.273 273.992 192.898 272.297 192.898 270.25V267.859ZM219.055 259.281H211.859V280H208.016V259.281H200.797V256H219.055V259.281ZM243.781 280H240.312V260.852C239.969 261.523 239.445 262.469 238.742 263.688L227.656 280H223.672V256H227.188V274.914C227.375 274.461 227.781 273.688 228.406 272.594L239.797 256H243.781V280ZM269.07 280H265.25V259.258H259.672C259.031 267.023 257.93 272.477 256.367 275.617C254.82 278.758 252.734 280.328 250.109 280.328C249.312 280.328 248.625 280.219 248.047 280V276.695C248.594 276.977 249.188 277.117 249.828 277.117C253.266 277.117 255.477 270.078 256.461 256H269.07V280ZM296.984 280H293.516V260.852C293.172 261.523 292.648 262.469 291.945 263.688L280.859 280H276.875V256H280.391V274.914C280.578 274.461 280.984 273.688 281.609 272.594L293 256H296.984V280ZM321.125 278.898C319.281 280.008 317.094 280.562 314.562 280.562C311.141 280.562 308.375 279.453 306.266 277.234C304.172 275 303.125 272.109 303.125 268.562C303.125 264.609 304.258 261.438 306.523 259.047C308.789 256.641 311.812 255.438 315.594 255.438C317.703 255.438 319.562 255.828 321.172 256.609V260.547C319.391 259.297 317.484 258.672 315.453 258.672C313 258.672 310.984 259.555 309.406 261.32C307.844 263.07 307.062 265.375 307.062 268.234C307.062 271.047 307.797 273.266 309.266 274.891C310.75 276.516 312.734 277.328 315.219 277.328C317.312 277.328 319.281 276.633 321.125 275.242V278.898ZM326.938 280V256H330.781V265.211H337.25C339.703 265.211 341.648 265.852 343.086 267.133C344.539 268.414 345.266 270.203 345.266 272.5C345.266 274.812 344.539 276.641 343.086 277.984C341.633 279.328 339.797 280 337.578 280H326.938ZM330.781 268.516V276.719H336.547C339.734 276.719 341.328 275.312 341.328 272.5C341.328 269.844 339.719 268.516 336.5 268.516H330.781ZM384.219 280H380.375V259.281H368.141V280H364.297V256H384.219V280ZM402.031 280.562C398.484 280.562 395.648 279.445 393.523 277.211C391.414 274.961 390.359 271.984 390.359 268.281C390.359 264.25 391.461 261.102 393.664 258.836C395.867 256.57 398.844 255.438 402.594 255.438C406.172 255.438 408.961 256.539 410.961 258.742C412.977 260.945 413.984 264 413.984 267.906C413.984 271.734 412.898 274.805 410.727 277.117C408.57 279.414 405.672 280.562 402.031 280.562ZM402.312 258.672C399.844 258.672 397.891 259.516 396.453 261.203C395.016 262.875 394.297 265.188 394.297 268.141C394.297 270.984 395.023 273.227 396.477 274.867C397.93 276.508 399.875 277.328 402.312 277.328C404.797 277.328 406.703 276.523 408.031 274.914C409.375 273.305 410.047 271.016 410.047 268.047C410.047 265.047 409.375 262.734 408.031 261.109C406.703 259.484 404.797 258.672 402.312 258.672ZM156.031 344H152.188V340.25H152.094C150.422 343.125 147.961 344.562 144.711 344.562C142.32 344.562 140.445 343.93 139.086 342.664C137.742 341.398 137.07 339.719 137.07 337.625C137.07 333.141 139.711 330.531 144.992 329.797L152.188 328.789C152.188 324.711 150.539 322.672 147.242 322.672C144.352 322.672 141.742 323.656 139.414 325.625V321.688C141.773 320.188 144.492 319.438 147.57 319.438C153.211 319.438 156.031 322.422 156.031 328.391V344ZM152.188 331.859L146.398 332.656C144.617 332.906 143.273 333.352 142.367 333.992C141.461 334.617 141.008 335.734 141.008 337.344C141.008 338.516 141.422 339.477 142.25 340.227C143.094 340.961 144.211 341.328 145.602 341.328C147.508 341.328 149.078 340.664 150.312 339.336C151.562 337.992 152.188 336.297 152.188 334.25V331.859ZM184.203 352.742H180.945V344H163.086V352.742H159.805V340.742H161.938C166.031 334.836 168.109 327.922 168.172 320H180.641V340.742H184.203V352.742ZM176.797 340.742V323.258H171.477C171.055 329.727 169.234 335.555 166.016 340.742H176.797ZM193.461 340.531H193.367V355.039H189.523V320H193.367V324.219H193.461C195.352 321.031 198.117 319.438 201.758 319.438C204.852 319.438 207.266 320.516 209 322.672C210.734 324.812 211.602 327.688 211.602 331.297C211.602 335.312 210.625 338.531 208.672 340.953C206.719 343.359 204.047 344.562 200.656 344.562C197.547 344.562 195.148 343.219 193.461 340.531ZM193.367 330.852V334.203C193.367 336.188 194.008 337.875 195.289 339.266C196.586 340.641 198.227 341.328 200.211 341.328C202.539 341.328 204.359 340.438 205.672 338.656C207 336.875 207.664 334.398 207.664 331.227C207.664 328.555 207.047 326.461 205.812 324.945C204.578 323.43 202.906 322.672 200.797 322.672C198.562 322.672 196.766 323.453 195.406 325.016C194.047 326.562 193.367 328.508 193.367 330.852ZM237.031 332.961H220.086C220.148 335.633 220.867 337.695 222.242 339.148C223.617 340.602 225.508 341.328 227.914 341.328C230.617 341.328 233.102 340.438 235.367 338.656V342.266C233.258 343.797 230.469 344.562 227 344.562C223.609 344.562 220.945 343.477 219.008 341.305C217.07 339.117 216.102 336.047 216.102 332.094C216.102 328.359 217.156 325.32 219.266 322.977C221.391 320.617 224.023 319.438 227.164 319.438C230.305 319.438 232.734 320.453 234.453 322.484C236.172 324.516 237.031 327.336 237.031 330.945V332.961ZM233.094 329.703C233.078 327.484 232.539 325.758 231.477 324.523C230.43 323.289 228.969 322.672 227.094 322.672C225.281 322.672 223.742 323.32 222.477 324.617C221.211 325.914 220.43 327.609 220.133 329.703H233.094ZM259.227 342.898C257.383 344.008 255.195 344.562 252.664 344.562C249.242 344.562 246.477 343.453 244.367 341.234C242.273 339 241.227 336.109 241.227 332.562C241.227 328.609 242.359 325.438 244.625 323.047C246.891 320.641 249.914 319.438 253.695 319.438C255.805 319.438 257.664 319.828 259.273 320.609V324.547C257.492 323.297 255.586 322.672 253.555 322.672C251.102 322.672 249.086 323.555 247.508 325.32C245.945 327.07 245.164 329.375 245.164 332.234C245.164 335.047 245.898 337.266 247.367 338.891C248.852 340.516 250.836 341.328 253.32 341.328C255.414 341.328 257.383 340.633 259.227 339.242V342.898ZM284.141 320L273.102 347.844C271.133 352.812 268.367 355.297 264.805 355.297C263.805 355.297 262.969 355.195 262.297 354.992V351.547C263.125 351.828 263.883 351.969 264.57 351.969C266.508 351.969 267.961 350.812 268.93 348.5L270.852 343.953L261.477 320H265.742L272.234 338.469C272.312 338.703 272.477 339.312 272.727 340.297H272.867C272.945 339.922 273.102 339.328 273.336 338.516L280.156 320H284.141ZM293.188 310.391L292.742 334.531H289.578L289.156 310.391H293.188ZM291.219 344.422C290.5 344.422 289.883 344.172 289.367 343.672C288.867 343.172 288.617 342.562 288.617 341.844C288.617 341.125 288.867 340.516 289.367 340.016C289.883 339.5 290.5 339.242 291.219 339.242C291.922 339.242 292.531 339.5 293.047 340.016C293.562 340.516 293.82 341.125 293.82 341.844C293.82 342.562 293.562 343.172 293.047 343.672C292.531 344.172 291.922 344.422 291.219 344.422Z" fill="black"/>
<path d="M71.4375 69V24.1875H95.375V28.9375H76.6875V43.1875H85.1875C89.6458 43.1875 93.1146 44.2708 95.5938 46.4375C98.0729 48.5833 99.3125 51.6458 99.3125 55.625C99.3125 59.75 98.0104 63.0104 95.4062 65.4062C92.8021 67.8021 89.25 69 84.75 69H71.4375ZM76.6875 47.9375V64.25H84.0625C87.1667 64.25 89.5625 63.5208 91.25 62.0625C92.9375 60.6042 93.7812 58.5625 93.7812 55.9375C93.7812 50.6042 90.5417 47.9375 84.0625 47.9375H76.6875ZM133.094 54.2812H110.5C110.583 57.8438 111.542 60.5938 113.375 62.5312C115.208 64.4688 117.729 65.4375 120.938 65.4375C124.542 65.4375 127.854 64.25 130.875 61.875V66.6875C128.062 68.7292 124.344 69.75 119.719 69.75C115.198 69.75 111.646 68.3021 109.062 65.4062C106.479 62.4896 105.188 58.3958 105.188 53.125C105.188 48.1458 106.594 44.0938 109.406 40.9688C112.24 37.8229 115.75 36.25 119.938 36.25C124.125 36.25 127.365 37.6042 129.656 40.3125C131.948 43.0208 133.094 46.7812 133.094 51.5938V54.2812ZM127.844 49.9375C127.823 46.9792 127.104 44.6771 125.688 43.0312C124.292 41.3854 122.344 40.5625 119.844 40.5625C117.427 40.5625 115.375 41.4271 113.688 43.1562C112 44.8854 110.958 47.1458 110.562 49.9375H127.844ZM162.688 67.5312C160.229 69.0104 157.312 69.75 153.938 69.75C149.375 69.75 145.688 68.2708 142.875 65.3125C140.083 62.3333 138.688 58.4792 138.688 53.75C138.688 48.4792 140.198 44.25 143.219 41.0625C146.24 37.8542 150.271 36.25 155.312 36.25C158.125 36.25 160.604 36.7708 162.75 37.8125V43.0625C160.375 41.3958 157.833 40.5625 155.125 40.5625C151.854 40.5625 149.167 41.7396 147.062 44.0938C144.979 46.4271 143.938 49.5 143.938 53.3125C143.938 57.0625 144.917 60.0208 146.875 62.1875C148.854 64.3542 151.5 65.4375 154.812 65.4375C157.604 65.4375 160.229 64.5104 162.688 62.6562V67.5312ZM197 69H191.875V41.375H175.562V69H170.438V37H197V69ZM220.75 69.75C216.021 69.75 212.24 68.2604 209.406 65.2812C206.594 62.2812 205.188 58.3125 205.188 53.375C205.188 48 206.656 43.8021 209.594 40.7812C212.531 37.7604 216.5 36.25 221.5 36.25C226.271 36.25 229.99 37.7188 232.656 40.6562C235.344 43.5938 236.688 47.6667 236.688 52.875C236.688 57.9792 235.24 62.0729 232.344 65.1562C229.469 68.2188 225.604 69.75 220.75 69.75ZM221.125 40.5625C217.833 40.5625 215.229 41.6875 213.312 43.9375C211.396 46.1667 210.438 49.25 210.438 53.1875C210.438 56.9792 211.406 59.9688 213.344 62.1562C215.281 64.3438 217.875 65.4375 221.125 65.4375C224.438 65.4375 226.979 64.3646 228.75 62.2188C230.542 60.0729 231.438 57.0208 231.438 53.0625C231.438 49.0625 230.542 45.9792 228.75 43.8125C226.979 41.6458 224.438 40.5625 221.125 40.5625ZM271.438 69H264.25L250.125 53.625H250V69H244.875V37H250V51.6562H250.125L263.562 37H270.281L255.438 52.4375L271.438 69ZM290.062 69.75C285.333 69.75 281.552 68.2604 278.719 65.2812C275.906 62.2812 274.5 58.3125 274.5 53.375C274.5 48 275.969 43.8021 278.906 40.7812C281.844 37.7604 285.812 36.25 290.812 36.25C295.583 36.25 299.302 37.7188 301.969 40.6562C304.656 43.5938 306 47.6667 306 52.875C306 57.9792 304.552 62.0729 301.656 65.1562C298.781 68.2188 294.917 69.75 290.062 69.75ZM290.438 40.5625C287.146 40.5625 284.542 41.6875 282.625 43.9375C280.708 46.1667 279.75 49.25 279.75 53.1875C279.75 56.9792 280.719 59.9688 282.656 62.1562C284.594 64.3438 287.188 65.4375 290.438 65.4375C293.75 65.4375 296.292 64.3646 298.062 62.2188C299.854 60.0729 300.75 57.0208 300.75 53.0625C300.75 49.0625 299.854 45.9792 298.062 43.8125C296.292 41.6458 293.75 40.5625 290.438 40.5625ZM341 69H336.375V43.4688C335.917 44.3646 335.219 45.625 334.281 47.25L319.5 69H314.188V37H318.875V62.2188C319.125 61.6146 319.667 60.5833 320.5 59.125L335.688 37H341V69ZM371.469 41.375H361.875V69H356.75V41.375H347.125V37H371.469V41.375ZM28.9375 153.094V148.062C31.7292 149.625 34.9896 150.406 38.7188 150.406C44.3646 150.406 47.1875 148.615 47.1875 145.031C47.1875 141.49 44.0938 139.719 37.9062 139.719H34.75V135.375H37.75C43.1875 135.375 45.9062 133.688 45.9062 130.312C45.9062 128.875 45.2812 127.729 44.0312 126.875C42.7812 126.021 41.0729 125.594 38.9062 125.594C35.8021 125.594 32.6875 126.375 29.5625 127.938V123.156C33.1042 121.865 36.3542 121.219 39.3125 121.219C47.1042 121.219 51 124.083 51 129.812C51 131.667 50.4167 133.271 49.25 134.625C48.1042 135.958 46.4896 136.844 44.4062 137.281V137.438C46.7812 137.625 48.6875 138.427 50.125 139.844C51.5625 141.26 52.2812 143.052 52.2812 145.219C52.2812 148.135 51.1042 150.458 48.75 152.188C46.3958 153.917 43.1562 154.781 39.0312 154.781C34.6354 154.781 31.2708 154.219 28.9375 153.094ZM85.6562 122L70.9375 159.125C68.3125 165.75 64.625 169.062 59.875 169.062C58.5417 169.062 57.4271 168.927 56.5312 168.656V164.062C57.6354 164.438 58.6458 164.625 59.5625 164.625C62.1458 164.625 64.0833 163.083 65.375 160L67.9375 153.938L55.4375 122H61.125L69.7812 146.625C69.8854 146.938 70.1042 147.75 70.4375 149.062H70.625C70.7292 148.562 70.9375 147.771 71.25 146.688L80.3438 122H85.6562ZM115.938 106.25V111.062C115.083 111.688 113.708 112.156 111.812 112.469C107.125 113.177 103.844 113.865 101.969 114.531C100.115 115.177 98.5833 116.573 97.375 118.719C96.1875 120.865 95.4271 124 95.0938 128.125H95.2188C97.7188 124.5 101.281 122.688 105.906 122.688C110.135 122.688 113.542 124.135 116.125 127.031C118.708 129.927 120 133.75 120 138.5C120 143.396 118.646 147.333 115.938 150.312C113.25 153.271 109.625 154.75 105.062 154.75C100.146 154.75 96.3542 153.01 93.6875 149.531C91.0417 146.031 89.7188 141.042 89.7188 134.562C89.7188 129.521 90.1979 125.25 91.1562 121.75C92.1146 118.229 93.4375 115.583 95.125 113.812C96.8333 112.042 98.7188 110.823 100.781 110.156C102.865 109.49 106.427 108.708 111.469 107.812C113.469 107.354 114.958 106.833 115.938 106.25ZM95.0312 133.188V137.625C95.0521 139.292 95.3021 140.927 95.7812 142.531C96.2604 144.135 96.9479 145.552 97.8438 146.781C98.7396 148.01 99.7917 148.927 101 149.531C102.229 150.135 103.625 150.438 105.188 150.438C108.042 150.438 110.344 149.375 112.094 147.25C113.865 145.104 114.75 142.365 114.75 139.031C114.75 135.365 113.844 132.458 112.031 130.312C110.24 128.146 107.812 127.062 104.75 127.062C100.458 127.062 97.2188 129.104 95.0312 133.188ZM154.812 154H149.688V139.469H133.375V154H128.25V122H133.375V135.125H149.688V122H154.812V154ZM188.094 154H182.969V149H182.844C180.615 152.833 177.333 154.75 173 154.75C169.812 154.75 167.312 153.906 165.5 152.219C163.708 150.531 162.812 148.292 162.812 145.5C162.812 139.521 166.333 136.042 173.375 135.062L182.969 133.719C182.969 128.281 180.771 125.562 176.375 125.562C172.521 125.562 169.042 126.875 165.938 129.5V124.25C169.083 122.25 172.708 121.25 176.812 121.25C184.333 121.25 188.094 125.229 188.094 133.188V154ZM182.969 137.812L175.25 138.875C172.875 139.208 171.083 139.802 169.875 140.656C168.667 141.49 168.062 142.979 168.062 145.125C168.062 146.688 168.615 147.969 169.719 148.969C170.844 149.948 172.333 150.438 174.188 150.438C176.729 150.438 178.823 149.552 180.469 147.781C182.135 145.99 182.969 143.729 182.969 141V137.812ZM219.625 154H214.5V140.75H210.219C208.156 140.75 206.281 142.417 204.594 145.75L200.438 154H194.5L199.875 144.125C201.125 141.833 202.635 140.323 204.406 139.594C201.906 139.26 200 138.344 198.688 136.844C197.375 135.344 196.719 133.469 196.719 131.219C196.719 128.385 197.74 126.146 199.781 124.5C201.844 122.833 204.729 122 208.438 122H219.625V154ZM214.5 136.469V126.375H208.438C204.125 126.375 201.969 128.01 201.969 131.281C201.969 134.74 204.062 136.469 208.25 136.469H214.5ZM272.25 106.25V111.062C271.396 111.688 270.021 112.156 268.125 112.469C263.438 113.177 260.156 113.865 258.281 114.531C256.427 115.177 254.896 116.573 253.688 118.719C252.5 120.865 251.74 124 251.406 128.125H251.531C254.031 124.5 257.594 122.688 262.219 122.688C266.448 122.688 269.854 124.135 272.438 127.031C275.021 129.927 276.312 133.75 276.312 138.5C276.312 143.396 274.958 147.333 272.25 150.312C269.562 153.271 265.938 154.75 261.375 154.75C256.458 154.75 252.667 153.01 250 149.531C247.354 146.031 246.031 141.042 246.031 134.562C246.031 129.521 246.51 125.25 247.469 121.75C248.427 118.229 249.75 115.583 251.438 113.812C253.146 112.042 255.031 110.823 257.094 110.156C259.177 109.49 262.74 108.708 267.781 107.812C269.781 107.354 271.271 106.833 272.25 106.25ZM251.344 133.188V137.625C251.365 139.292 251.615 140.927 252.094 142.531C252.573 144.135 253.26 145.552 254.156 146.781C255.052 148.01 256.104 148.927 257.312 149.531C258.542 150.135 259.938 150.438 261.5 150.438C264.354 150.438 266.656 149.375 268.406 147.25C270.177 145.104 271.062 142.365 271.062 139.031C271.062 135.365 270.156 132.458 268.344 130.312C266.552 128.146 264.125 127.062 261.062 127.062C256.771 127.062 253.531 129.104 251.344 133.188ZM297.938 154.75C293.208 154.75 289.427 153.26 286.594 150.281C283.781 147.281 282.375 143.312 282.375 138.375C282.375 133 283.844 128.802 286.781 125.781C289.719 122.76 293.688 121.25 298.688 121.25C303.458 121.25 307.177 122.719 309.844 125.656C312.531 128.594 313.875 132.667 313.875 137.875C313.875 142.979 312.427 147.073 309.531 150.156C306.656 153.219 302.792 154.75 297.938 154.75ZM298.312 125.562C295.021 125.562 292.417 126.688 290.5 128.938C288.583 131.167 287.625 134.25 287.625 138.188C287.625 141.979 288.594 144.969 290.531 147.156C292.469 149.344 295.062 150.438 298.312 150.438C301.625 150.438 304.167 149.365 305.938 147.219C307.729 145.073 308.625 142.021 308.625 138.062C308.625 134.062 307.729 130.979 305.938 128.812C304.167 126.646 301.625 125.562 298.312 125.562ZM345.406 154H340.312V126.344H332.875C332.021 136.698 330.552 143.969 328.469 148.156C326.406 152.344 323.625 154.438 320.125 154.438C319.062 154.438 318.146 154.292 317.375 154V149.594C318.104 149.969 318.896 150.156 319.75 150.156C324.333 150.156 327.281 140.771 328.594 122H345.406V154ZM355.812 154V122H360.938V134.281H369.562C372.833 134.281 375.427 135.135 377.344 136.844C379.281 138.552 380.25 140.938 380.25 144C380.25 147.083 379.281 149.521 377.344 151.312C375.406 153.104 372.958 154 370 154H355.812ZM360.938 138.688V149.625H368.625C372.875 149.625 375 147.75 375 144C375 140.458 372.854 138.688 368.562 138.688H360.938ZM393.344 141.562C393.156 141.021 392.99 140.323 392.844 139.469C392.698 138.594 392.625 137.729 392.625 136.875C392.625 135.542 392.885 134.344 393.406 133.281C393.948 132.198 394.615 131.188 395.406 130.25C396.198 129.312 397.062 128.417 398 127.562C398.938 126.688 399.802 125.812 400.594 124.938C401.385 124.042 402.042 123.115 402.562 122.156C403.104 121.177 403.375 120.104 403.375 118.938C403.375 117.938 403.177 117.052 402.781 116.281C402.406 115.51 401.885 114.865 401.219 114.344C400.552 113.823 399.781 113.438 398.906 113.188C398.031 112.917 397.104 112.781 396.125 112.781C392.604 112.781 389.552 114.167 386.969 116.938V111.438C390.156 109.438 393.458 108.438 396.875 108.438C398.458 108.438 399.948 108.646 401.344 109.062C402.74 109.479 403.958 110.104 405 110.938C406.062 111.75 406.896 112.771 407.5 114C408.104 115.229 408.406 116.656 408.406 118.281C408.406 119.823 408.135 121.198 407.594 122.406C407.052 123.615 406.365 124.729 405.531 125.75C404.719 126.75 403.833 127.688 402.875 128.562C401.917 129.438 401.021 130.312 400.188 131.188C399.375 132.042 398.698 132.938 398.156 133.875C397.615 134.812 397.344 135.844 397.344 136.969C397.344 137.927 397.458 138.802 397.688 139.594C397.917 140.365 398.146 141.021 398.375 141.562H393.344ZM396.156 154.562C395.24 154.562 394.427 154.229 393.719 153.562C393.031 152.896 392.688 152.083 392.688 151.125C392.688 150.146 393.031 149.333 393.719 148.688C394.406 148 395.219 147.656 396.156 147.656C397.094 147.656 397.906 148 398.594 148.688C399.281 149.333 399.625 150.146 399.625 151.125C399.625 152.083 399.281 152.896 398.594 153.562C397.885 154.229 397.073 154.562 396.156 154.562Z" fill="black"/>
</svg>
